<svg fill="none" height="14" viewBox="0 0 14 14" width="14" xmlns="http://www.w3.org/2000/svg"><path clip-rule="evenodd" d="m13.5 7.00002c0 3.58978-2.9102 6.49998-6.5 6.49998-3.58988 0-6.5-2.9102-6.5-6.49998 0-3.58986 2.91012-6.50002 6.5-6.50002 3.5898 0 6.5 2.91016 6.5 6.50002z" fill="#fff" fill-rule="evenodd"/><path d="m7 .25c3.7279 0 6.75 3.02208 6.75 6.75 0 3.7279-3.0221 6.75-6.75 6.75-3.72795 0-6.75-3.0221-6.75-6.75.000011-3.72792 3.02206-6.75 6.75-6.75z" stroke="#000" stroke-opacity=".1" stroke-width=".5"/><path d="m5.19971 6.65479c0 .5983.48567 1.08398 1.08398 1.08398h1.7334v-1.64844c.00018-.14269.16314-.22432.27734-.13867l3.00387 2.25391c.0924.06935.0925.20803 0 .27734l-3.00387 2.25289c-.11426.0857-.27734.0042-.27734-.1386v-1.55863h-1.7334c-1.31628 0-2.38379-1.06751-2.38379-2.38378v-3.55469h1.29981z" fill="#191919"/></svg>