<svg width="20" height="20" viewBox="0 0 20 20" fill="none" xmlns="http://www.w3.org/2000/svg">
<g clip-path="url(#clip0_2863_120157)">
<path d="M10 0C15.5226 4.28811e-05 20 4.47735 20 10C19.9999 15.5226 15.5226 19.999 10 19.999C4.47747 19.9989 0.000122045 15.5225 0 10C2.63895e-05 4.47739 4.47741 0.000105562 10 0ZM6.45117 4.45898C6.06457 4.45898 5.75098 4.77258 5.75098 5.15918V8.95117C5.75161 10.787 7.24022 12.2754 9.07617 12.2754H12.6016L10.9141 13.9629C10.6409 14.2362 10.6409 14.6798 10.9141 14.9531C11.1874 15.2261 11.631 15.2262 11.9043 14.9531L14.6143 12.2432C15.0011 11.856 15.0011 11.228 14.6143 10.8408L11.9043 8.12988C11.6311 7.85664 11.1875 7.85688 10.9141 8.12988C10.6409 8.40326 10.6408 8.84681 10.9141 9.12012L12.6709 10.876H9.07617C8.01342 10.876 7.152 10.0138 7.15137 8.95117V5.15918C7.15137 4.77274 6.83755 4.45925 6.45117 4.45898Z" fill="black"/>
</g>
<defs>
<clipPath id="clip0_2863_120157">
<rect width="20" height="20" fill="white"/>
</clipPath>
</defs>
</svg>
