<svg width="12" height="12" viewBox="0 0 12 12" fill="none" xmlns="http://www.w3.org/2000/svg">
<g opacity="0.7">
<path d="M8.45117 10.0005C8.33788 10.0005 8.24609 9.90871 8.24609 9.79541L8.24609 6.17432C8.24594 5.57342 7.75813 5.08555 7.15723 5.08545L5.11523 5.08545L5.11523 7.06396C5.11523 7.23303 4.92237 7.32947 4.78711 7.22803L0.881836 4.29932C0.772404 4.21724 0.772403 4.05228 0.881836 3.97021L4.78711 1.0415C4.92233 0.940105 5.11512 1.03659 5.11524 1.20557L5.11523 3.34131L7.15723 3.34131C8.72132 3.34141 9.98911 4.61023 9.98926 6.17432L9.98926 9.79541C9.98926 9.90869 9.89745 10.0004 9.78418 10.0005L8.45117 10.0005Z" fill="white"/>
</g>
</svg>
