<svg width="16" height="16" viewBox="0 0 16 16" fill="none" xmlns="http://www.w3.org/2000/svg">
<path d="M8 2C9.81315 2.00078 11.2826 3.46425 11.2832 5.26953V6.51465H11.6279C12.2446 6.51465 12.75 7.01737 12.75 7.63184V12.8838C12.7497 13.498 12.2445 14 11.6279 14H4.37207C3.75554 14 3.25026 13.498 3.25 12.8838V7.63184C3.25 7.01737 3.75538 6.51465 4.37207 6.51465H4.71582V5.26953C4.71638 3.46412 6.18638 2.00084 8 2ZM8 3.24414C6.89675 3.24545 6.0013 4.13605 6 5.23535V6.3877H10V5.23535C9.99792 4.13604 9.10405 3.24543 8 3.24414Z" fill="white"/>
</svg>
