<svg width="16" height="16" viewBox="0 0 16 16" fill="none" xmlns="http://www.w3.org/2000/svg">
<path d="M7.7168 3C9.13546 3.00057 10.2857 4.1461 10.2861 5.55859V6.5332H10.5557C11.038 6.53322 11.4334 6.92567 11.4336 7.40625V11.5156C11.4335 11.9963 11.0381 12.3896 10.5557 12.3896H4.87793C4.39557 12.3895 4.00009 11.9962 4 11.5156V7.40625C4.0002 6.92573 4.39564 6.53331 4.87793 6.5332H5.14746V5.55859C5.1479 4.14602 6.2978 3.00066 7.7168 3ZM7.7168 3.97363C6.85372 3.97468 6.15352 4.6713 6.15234 5.53125V6.43359H9.28223V5.53125C9.28045 4.67127 8.58052 3.97464 7.7168 3.97363Z" fill="white"/>
</svg>
