<svg width="18" height="18" viewBox="0 0 18 18" fill="none" xmlns="http://www.w3.org/2000/svg">
<g clip-path="url(#clip0_247_11119)">
<path d="M9 18C13.9706 18 18 13.9706 18 9C18 4.02944 13.9706 0 9 0C4.02944 0 0 4.02944 0 9C0 13.9706 4.02944 18 9 18Z" fill="black" fill-opacity="0.42"/>
<path d="M8.99646 4.30554C10.4151 4.30598 11.5651 5.45077 11.5658 6.86316V7.83777H11.8363C12.3186 7.83803 12.7132 8.23123 12.7133 8.71179V12.8212C12.713 13.3016 12.3184 13.694 11.8363 13.6942H6.15857C5.67621 13.6942 5.28088 13.3017 5.28064 12.8212V8.71179C5.28069 8.23107 5.67609 7.83777 6.15857 7.83777H6.42712V6.86316C6.42777 5.45086 7.57773 4.30635 8.99646 4.30554ZM8.99744 5.27917C8.13423 5.28019 7.43303 5.97669 7.43201 6.83679V7.73816H10.5619V6.83679C10.5603 5.97681 9.86107 5.28039 8.99744 5.27917Z" fill="white"/>
</g>
<defs>
<clipPath id="clip0_247_11119">
<rect width="18" height="18" fill="white"/>
</clipPath>
</defs>
</svg>
