<svg fill="none" height="16" viewBox="0 0 16 16" width="16" xmlns="http://www.w3.org/2000/svg" xmlns:xlink="http://www.w3.org/1999/xlink"><clipPath id="a"><path d="m0 0h16v16h-16z"/></clipPath><g clip-path="url(#a)"><path d="m8.00049 1.28564c3.66591.00016 6.62391 3.01359 6.62401 6.71387-.0002 4.93909-4.93124 7.83319-8.98827 6.27149l-1.20312.5244c-.94691.4122-1.97148-.3963-1.79102-1.4131l.20703-1.1709c-.9196-1.1511-1.47357-2.61523-1.47363-4.21189.00013-3.70037 2.95819-6.71387 6.625-6.71387zm0 1.09961c-3.04425 0-5.52526 2.50624-5.52539 5.61426.00006 1.41843.52099 2.70959 1.37597 3.69729.10837.1251.15471.293.12598.456l-.25195 1.4219c-.02694.1525.12648.2736.26855.2119l1.41211-.6142.10742-.0342c.10964-.0228.22458-.0117.32911.0332 3.41141 1.4671 7.68241-.9735 7.68261-5.17189-.0001-3.10792-2.4811-5.6141-5.52441-5.61426zm.14746 5.54102h3.45015v1.09961h-3.99996c-.30359 0-.54954-.24627-.5498-.54981v-4h1.09961z" fill="#000"/></g></svg>