<svg fill="none" height="16" viewBox="0 0 16 16" width="16" xmlns="http://www.w3.org/2000/svg" xmlns:xlink="http://www.w3.org/1999/xlink"><clipPath id="a"><path d="m0 0h16v16h-16z"/></clipPath><g clip-path="url(#a)" fill="#000"><path d="m9.57397 12.6499c.40111.0139.71473.3498.70113.751-.0136.4013-.34957.7157-.75093.7021-.40128-.0136-.7156-.3497-.70215-.7509.01366-.4015.35055-.7159.75195-.7022zm2.13673-1.3389c.4013.0137.7157.3497.7021.751-.0136.4014-.3505.7158-.7519.7022-.4011-.0139-.7156-.3499-.7022-.751.0137-.4014.3506-.7158.752-.7022zm-2.13673-1.34957c.4012.01389.71483.35067.70113.75197-.0137.4012-.34966.7157-.75093.7021-.4014-.0136-.71581-.3505-.70215-.7519.01372-.4014.35059-.71583.75195-.70217zm4.09763.32417c.3105.0106.5545.2706.544.5811-.0106.3104-.2716.5535-.5821.543-.3102-.0107-.5533-.2708-.5429-.5811.0105-.3103.2708-.5533.581-.543zm-1.9609-1.66206c.4014.01366.7158.35054.7021.75195-.0139.40118-.3507.71481-.7519.70121-.4012-.0139-.7157-.34981-.7022-.75102.0137-.40139.3506-.71578.752-.70214zm-2.13673-1.34961c.40111.01389.71473.34983.70113.75097-.0136.40137-.34957.71575-.75093.70215-.40128-.01366-.7156-.34974-.70215-.75098.01366-.4014.35055-.71581.75195-.70214zm4.09763.32324c.3104.01056.5543.27074.544.58105-.0106.31048-.2716.55354-.5821.54297-.3103-.01073-.5535-.27068-.5429-.58105.0106-.31024.2708-.55327.581-.54297zm-1.9609-1.66211c.4013.01366.7157.34969.7021.75098-.0136.4014-.3505.71581-.7519.70214-.4011-.01385-.7156-.34987-.7022-.75097.0137-.4014.3506-.71579.752-.70215zm-2.13673-1.34961c.4012.01389.71483.35069.70113.75195-.0137.40125-.34966.71574-.75093.70215-.4014-.01366-.71581-.35055-.70215-.75195.01372-.40135.35059-.71581.75195-.70215zm4.09763.32422c.3105.01057.5545.27057.544.58105-.0106.31044-.2716.55354-.5821.54297-.3102-.01072-.5533-.2708-.5429-.58105.0105-.31033.2708-.55328.581-.54297zm-1.9609-1.66309c.4014.01366.7158.35055.7021.75196-.0137.40129-.3506.7158-.7519.70214-.4012-.01385-.7158-.35067-.7022-.75195.0138-.40134.3506-.71578.752-.70215zm-2.13673-1.34961c.4012.0139.71483.3507.70113.75196-.0139.40114-.34973.71477-.75093.70117-.40136-.01366-.71574-.34963-.70215-.75098.01366-.4014.35055-.71581.75195-.70215z"/><path d="m7.5 2.86816-.17285.02344c-2.47581.33397-4.39637 2.48884-4.39649 5.1084.00013 1.30232.47857 2.4878 1.26368 3.3945.10681.1238.15251.2902.12402.4512l-.27832 1.5664c-.00013.001 0 .0023 0 .0029.00059.0007.00182.0021.00293.003l.00293.0009h.00293l1.54004-.6709c.13749-.0595.29494-.0601.43261-.0009.42209.1814.85918.2988 1.29883.3545l.17969.0224v1.0967l-.31641-.04c-.46035-.0584-.91818-.175-1.36523-.3457l-1.33496.581c-.80051.3485-1.667-.3347-1.51465-1.1943l.2334-1.3194c-.84859-1.0679-1.36024-2.42423-1.36035-3.9023.00012-3.15946 2.32021-5.77932 5.34082-6.18652l.31738-.04297z"/></g></svg>