<svg fill="none" height="16" viewBox="0 0 16 16" width="16" xmlns="http://www.w3.org/2000/svg" xmlns:xlink="http://www.w3.org/1999/xlink"><clipPath id="a"><path d="m0 0h16v16h-16z"/></clipPath><clipPath id="b"><path d="m.5.5h15v15h-15z"/></clipPath><g clip-path="url(#a)"><g clip-path="url(#b)"><path d="m7.97632 1.44824c1.89609.00022 3.55118 1.02789 4.44238 2.55567l1.4258-1.35547.3974-.37891.7588.79688-.3984.3789-11.93946 11.36429-.39844.3789-.75781-.7959.39844-.3809 1.93555-1.8418h-.05079c-.97092-.0005-1.64604-.9656-1.31347-1.8779l.31836-.87403c.05661-.15552.08392-.32085.08105-.48633l-.04004-2.33301-.00097-.00879h.00097c.00017-2.83906 2.30164-5.14117 5.14063-5.1416zm5.14158 5.13184.042 2.39844c.0022.1249.0214.24959.0576.36914l.3096 1.01664c.2728.8983-.4 1.8054-1.3389 1.8056h-1.6377c-.1249 1.3373-1.24195 2.3904-2.61031 2.3906-.92011-.0001-1.72418-.4776-2.19141-1.1962l.81934-.7803c.2454.5194.7691.8757 1.37207.876.75271-.0002 1.38267-.5553 1.50097-1.2901h-2.4375l1.15528-1.0996h4.02926c.2005-.0002.3444-.1948.2862-.3867l-.3086-1.01563c-.066-.21711-.1015-.44306-.1055-.66992l-.0283-1.61426 1.0801-1.02832c.0033.07447.0057.14935.0058.22461zm-5.14158-4.03223c-2.23147.00043-4.04085 1.81044-4.04102 4.04199l.04004 2.32325c.0052.30042-.04459.59952-.14746.88183l-.31836.87398c-.07076.1947.07319.4009.28027.4014h1.20606l6.59865-6.28124c-.6623-1.32813-2.03368-2.241-3.61818-2.24121z" fill="#000"/></g></g></svg>