<svg fill="none" height="16" viewBox="0 0 16 16" width="16" xmlns="http://www.w3.org/2000/svg"><path d="m8 1.3501c3.667.00016 6.6502 2.9824 6.6504 6.64941-.0002 3.66709-2.9833 6.65019-6.6504 6.65039-3.66701-.0002-6.64926-2.9834-6.64941-6.65039.00021-3.66698 2.98243-6.6492 6.64941-6.64941zm0 1.09961c-3.05947.00021-5.54959 2.49034-5.5498 5.5498.00015 3.05949 2.4903 5.55059 5.5498 5.55079 3.0595-.0002 5.5506-2.4912 5.5508-5.55079-.0002-3.0595-2.4913-5.54964-5.5508-5.5498zm3.4199 4.07324-3.37693 3.37793c-.41002.40972-1.07536.40982-1.48535 0l-1.97754-1.97852.38867-.38867.38867-.38965 1.94238 1.94239 3.3428-3.34082z" fill="#000"/></svg>