<svg fill="none" height="16" viewBox="0 0 16 16" width="16" xmlns="http://www.w3.org/2000/svg"><path d="m5.74951 2.75049h4.50099v-1.25098h1.0996v1.25098h1.9492c.4708.00019.8525.38169.8526.85254v9.70217c-.0002.4708-.3818.8523-.8526.8525h-10.59471c-.47076-.0002-.85238-.3818-.85254-.8525v-9.70217c.00009-.47083.38174-.85232.85254-.85254h1.94531v-1.25098h1.09961zm-2.79785 10.30761h10.10054v-9.208h-10.10054zm7.35054-6.28027.3897.38867-2.7793 2.77832c-.21475.21458-.5626.21458-.77735 0l-1.82226-1.82226.38867-.38867.38867-.38965 1.4336 1.43359 2.38964-2.38867z" fill="#000"/></svg>