<svg fill="none" height="16" viewBox="0 0 16 16" width="16" xmlns="http://www.w3.org/2000/svg"><path d="m9.75 2.19824c2.8703 0 5.1004 1.99184 5.1006 4.68848v5.14448c0 1.0271-.8394 1.8506-1.8633 1.8506-.566-.0001-1.103-.2554-1.457-.6972v-.001l-1.62698-2.0332h-3.80664l-1.62695 2.0332-.00098.001c-.35403.4415-.8903.6971-1.45605.6972-1.02418 0-1.86231-.8237-1.86231-1.8506v-5.14448c.00024-2.69657 2.22922-4.68848 5.09961-4.68848zm-3.5 1.09961c-2.35745 0-3.99977 1.59026-4 3.58887v5.14448c0 .4104.33703.751.7627.751.2342-.0001.45373-.1066.59765-.2861l1.79199-2.2393c.10435-.1304.26269-.206.42969-.206h4.33597l.123.0137c.1197.0275.2284.0946.3067.1923l1.7919 2.2393h-.0009c.1439.1796.3643.286.5986.2861.4259 0 .7627-.3408.7627-.751v-5.14448c-.0002-1.99855-1.6425-3.58887-4-3.58887zm-.09375 3.0586h1.08789v1.0996h-1.08789v1.08887h-1.09961v-1.08887h-1.08887v-1.0996h1.08887v-1.0879h1.09961zm3.58789.43359c.40146 0 .72746.32515.72756.72656 0 .40147-.3261.72656-.72756.72656-.4013-.00019-.72656-.32521-.72656-.72656.00006-.40129.3253-.72637.72656-.72656zm1.64846-1.40527c.4013.00006.7265.32519.7265.72656 0 .40142-.3251.72649-.7265.72656-.4015 0-.7266-.32509-.7266-.72656.0001-.40142.3251-.72656.7266-.72656z" fill="#000"/></svg>