<svg fill="none" height="16" viewBox="0 0 16 16" width="16" xmlns="http://www.w3.org/2000/svg"><path d="m14.0767 9.16772.54.10254c-.5959 3.13384-3.3495 5.50394-6.65723 5.50394-2.41072-.0003-4.52581-1.2597-5.72656-3.1543l-.77441.3828.16504-2.93654 2.43457 1.65434-.83008.4082c1.01705 1.5337 2.75537 2.5447 4.73144 2.5449 2.76963 0 5.07703-1.984 5.57613-4.60841zm-4.044-2.11621h1.0205v.85547h-1.0205v3.47752h-1.00487v-6.5615h1.00487zm-1.9619-1.15332c-.00012 1.97784-1.29544 3.2181-2.66113 3.98731l-.54199-.8086c1.21661-.69072 2.21379-1.67182 2.21386-2.94336h-2.07226v-.83203h3.06152zm-.02734-4.67578c2.44984.00011 4.59464 1.30048 5.78414 3.2461l.7139-.35059-.165 2.93652-2.4356-1.65429.8936-.44141c-1.0074-1.58466-2.7759-2.63661-4.79104-2.63672-2.77136.00016-5.08023 1.98742-5.57715 4.61426l-1.08008-.20508c.59349-3.13661 3.34764-5.50863 6.65723-5.50879z" fill="#000"/></svg>