<svg width="32" height="32" viewBox="0 0 32 32" fill="none" xmlns="http://www.w3.org/2000/svg">
<g clip-path="url(#clip0_15233_2243)">
<g filter="url(#filter0_d_15233_2243)">
<path d="M14.124 18.953C14.8144 20.1488 14.4047 21.6777 13.209 22.3681C12.3167 22.8832 11.2394 22.7851 10.463 22.2057L1.39846 27.439L0.564964 25.9954L9.53729 20.8152C9.26944 19.758 9.71781 18.6102 10.709 18.038C11.9047 17.3476 13.4337 17.7573 14.124 18.953Z" fill="#666666"/>
<path fill-rule="evenodd" clip-rule="evenodd" d="M26.1582 11.9805C28.9023 16.7333 28.0624 22.3552 24.2826 24.5375C20.5023 26.72 15.2297 24.6131 12.4856 19.8602C9.7417 15.1076 10.5656 9.50911 14.3459 7.32658C18.1257 5.14428 23.4143 7.22789 26.1582 11.9805Z" fill="#CCCCCC"/>
<path d="M14.0972 8.41127C13.812 7.25045 15.3919 5.84668 17.6253 5.276C19.8591 4.70521 21.9012 5.18368 22.1867 6.34452C22.2827 6.73453 22.1648 7.14943 21.8856 7.55352C23.6668 7.35468 25.1348 7.84553 25.3741 8.81638C25.5005 9.32975 25.261 9.89001 24.7624 10.4054C26.066 10.1072 27.159 10.2931 27.5642 10.9946C27.983 11.7199 27.557 12.8066 26.5798 13.8148C27.2223 13.6798 27.7774 13.7635 28.1356 14.1073C28.8377 14.7812 28.5655 16.2371 27.5709 17.6449C28.1179 17.5725 28.5867 17.6735 28.9025 17.9767C29.765 18.8043 29.1583 20.8121 27.5472 22.4612C25.9364 24.1103 23.9306 24.7764 23.0679 23.949C22.3658 23.2752 22.6366 21.8191 23.6305 20.4116C23.0844 20.4834 22.616 20.3816 22.3006 20.0788C21.4722 19.2833 22.0011 17.4008 23.4722 15.7917C21.8285 16.3831 20.3495 16.2834 19.863 15.4409C19.3617 14.5721 20.0701 13.1829 21.4887 12.0339C19.3986 12.4685 17.5556 11.9826 17.2851 10.884C17.1893 10.4944 17.3055 10.0787 17.584 9.6751C15.8036 9.87325 14.3361 9.38218 14.0972 8.41127Z" fill="#E2E2E2"/>
<path d="M16.8227 7.37604C17.1967 7.16006 17.6385 7.09693 18.1243 7.16578C19.6696 6.95487 20.9749 7.37402 21.1861 8.21493C21.2362 8.4145 21.2169 8.62068 21.1446 8.82863C21.2715 8.94169 21.3983 9.05992 21.5251 9.18293C22.7179 9.18148 23.6461 9.58773 23.8212 10.285C23.9171 10.6671 23.7696 11.077 23.4461 11.4635C23.4682 11.495 23.4894 11.5271 23.5114 11.5589C24.4989 11.3777 25.3158 11.5535 25.6337 12.104C25.9515 12.6544 25.6946 13.449 25.0441 14.2136C25.0729 14.2743 25.1019 14.3347 25.1298 14.3953C25.5346 14.3639 25.8819 14.4541 26.123 14.6879C26.5957 15.1461 26.5394 16.0277 26.0681 16.9658C26.1277 17.1904 26.1798 17.4111 26.2247 17.6276C26.4415 17.6688 26.6298 17.7567 26.7779 17.9002C27.4004 18.5034 27.1107 19.8425 26.156 21.075C25.9726 21.5309 25.6971 21.8823 25.3227 22.0985C25.2098 22.1636 25.0906 22.2144 24.9661 22.2524C23.8239 23.1165 22.6111 23.3801 22.0246 22.8118C21.6798 22.4774 21.6164 21.9171 21.7897 21.2741C20.4282 20.2796 18.9962 18.6427 17.8188 16.6034C16.6431 14.567 15.9433 12.5161 15.7643 10.8456C15.1239 10.6736 14.6727 10.34 14.5558 9.87557C14.3569 9.08346 15.1912 8.16423 16.5106 7.60697C16.6058 7.51837 16.7099 7.44119 16.8227 7.37604Z" fill="#E2E2E2"/>
<path fill-rule="evenodd" clip-rule="evenodd" d="M12.4858 19.8476C12.4858 19.8476 10.3246 16.2173 6.69717 17.2131C6.69717 17.2131 5.35351 17.6057 4.95473 16.2639C4.6317 15.177 5.98526 14.7197 6.61419 14.6172C7.24447 14.5146 10.1626 14.0888 12.5385 19.3171L12.4858 19.8476Z" fill="#CCCCCC"/>
<path fill-rule="evenodd" clip-rule="evenodd" d="M12.495 19.8638C12.495 19.8638 14.5584 23.5506 11.8823 26.1941C11.8823 26.1941 10.8705 27.1615 11.8332 28.1777C12.6129 29.0009 13.6857 28.0573 14.0889 27.5639C14.4931 27.0696 16.3208 24.7551 12.9809 20.0833L12.495 19.8638Z" fill="#CCCCCC"/>
<ellipse cx="17.2821" cy="16.926" rx="4.38353" ry="2.24999" transform="rotate(-30 17.2821 16.926)" fill="url(#paint0_linear_15233_2243)"/>
<ellipse cx="15.933" cy="13.0862" rx="4.38353" ry="2.24999" transform="rotate(-30 15.933 13.0862)" fill="url(#paint1_linear_15233_2243)"/>
<ellipse cx="19.933" cy="20.0146" rx="4.38353" ry="2.24999" transform="rotate(-30 19.933 20.0146)" fill="url(#paint2_linear_15233_2243)"/>
<ellipse cx="14.9256" cy="9.33771" rx="4.38353" ry="2.24999" transform="rotate(-30 14.9256 9.33771)" fill="url(#paint3_linear_15233_2243)"/>
<ellipse cx="22.6756" cy="22.7612" rx="4.38353" ry="2.24999" transform="rotate(-30 22.6756 22.7612)" fill="url(#paint4_linear_15233_2243)"/>
<path fill-rule="evenodd" clip-rule="evenodd" d="M13.1612 19.353C13.0067 19.9214 12.2959 19.9445 12.0564 19.4073C10.8685 16.7421 8.87835 11.0117 11.6774 6.04442C12.1316 5.23881 12.9082 4.61569 13.8244 4.48664C14.3322 4.41498 14.8859 4.53121 15.2494 4.97916C15.6367 5.45654 15.8185 6.41611 15.2615 7.10097C14.1873 8.42126 11.4335 11.8121 13.1612 19.353Z" fill="url(#paint5_linear_15233_2243)"/>
<path fill-rule="evenodd" clip-rule="evenodd" d="M13.1486 19.313C12.5796 19.1623 12.1929 19.7741 12.5384 20.2501C14.2521 22.6117 18.2304 27.1931 23.9256 27.2564C24.8494 27.2664 25.7761 26.9061 26.3449 26.1778C26.6602 25.774 26.836 25.2368 26.6296 24.6982C26.4097 24.1241 25.67 23.4866 24.7994 23.626C23.1208 23.8948 18.8125 24.5814 13.1486 19.313Z" fill="url(#paint6_linear_15233_2243)"/>
<path opacity="0.22" fill-rule="evenodd" clip-rule="evenodd" d="M21.5682 12.2826L22.1281 12.8858C22.1725 12.9336 22.2437 12.9386 22.2898 12.8974L22.651 12.574C22.7191 12.5127 22.8298 12.5573 22.8453 12.6523L23.0146 13.6931C23.0197 13.7236 23.036 13.7518 23.06 13.7716L23.8768 14.4389C23.9511 14.4996 23.9344 14.6177 23.8473 14.6462L23.3866 14.7972C23.3279 14.8165 23.2967 14.8807 23.3158 14.943L23.5583 15.7295C23.5958 15.8514 23.4511 15.935 23.3644 15.8415L22.8045 15.2382C22.7603 15.1904 22.6889 15.1854 22.6428 15.2266L22.2817 15.5501C22.2135 15.6113 22.1027 15.5668 22.0873 15.4721L21.918 14.4309C21.913 14.4001 21.8967 14.372 21.8727 14.3524L21.0558 13.6855C20.9813 13.6246 20.9982 13.5063 21.0853 13.4779L21.546 13.3269C21.6047 13.3075 21.6362 13.2432 21.6168 13.181L21.3743 12.3945C21.3366 12.2727 21.4814 12.1892 21.5682 12.2826Z" fill="#333333"/>
</g>
</g>
<defs>
<filter id="filter0_d_15233_2243" x="-0.268392" y="4.46704" width="30.3966" height="26.1187" filterUnits="userSpaceOnUse" color-interpolation-filters="sRGB">
<feFlood flood-opacity="0" result="BackgroundImageFix"/>
<feColorMatrix in="SourceAlpha" type="matrix" values="0 0 0 0 0 0 0 0 0 0 0 0 0 0 0 0 0 0 127 0" result="hardAlpha"/>
<feOffset dy="1.25"/>
<feGaussianBlur stdDeviation="0.416667"/>
<feColorMatrix type="matrix" values="0 0 0 0 0 0 0 0 0 0 0 0 0 0 0 0 0 0 0.195668 0"/>
<feBlend mode="normal" in2="BackgroundImageFix" result="effect1_dropShadow_15233_2243"/>
<feBlend mode="normal" in="SourceGraphic" in2="effect1_dropShadow_15233_2243" result="shape"/>
</filter>
<linearGradient id="paint0_linear_15233_2243" x1="15.2878" y1="18.2168" x2="19.9779" y2="16.7267" gradientUnits="userSpaceOnUse">
<stop stop-color="#CCCCCC"/>
<stop offset="0.326125" stop-color="#D4D4D4"/>
<stop offset="1" stop-color="white"/>
</linearGradient>
<linearGradient id="paint1_linear_15233_2243" x1="11.5494" y1="14.6261" x2="17.5494" y2="14.6261" gradientUnits="userSpaceOnUse">
<stop stop-color="#CCCCCC"/>
<stop offset="0.334215" stop-color="#CFCFCF"/>
<stop offset="1" stop-color="white"/>
</linearGradient>
<linearGradient id="paint2_linear_15233_2243" x1="16.857" y1="20.7515" x2="21.1894" y2="22.4491" gradientUnits="userSpaceOnUse">
<stop stop-color="#CCCCCC"/>
<stop offset="1" stop-color="white"/>
</linearGradient>
<linearGradient id="paint3_linear_15233_2243" x1="11.0284" y1="8.84737" x2="12.2331" y2="11.822" gradientUnits="userSpaceOnUse">
<stop stop-color="#CCCCCC"/>
<stop offset="1" stop-color="white"/>
</linearGradient>
<linearGradient id="paint4_linear_15233_2243" x1="23.2652" y1="24.7134" x2="24.2207" y2="21.9737" gradientUnits="userSpaceOnUse">
<stop stop-color="#CCCCCC"/>
<stop offset="1" stop-color="white"/>
</linearGradient>
<linearGradient id="paint5_linear_15233_2243" x1="8.70048" y1="12.848" x2="16.4204" y2="10.5825" gradientUnits="userSpaceOnUse">
<stop stop-color="#C5C5C5"/>
<stop offset="1" stop-color="white"/>
</linearGradient>
<linearGradient id="paint6_linear_15233_2243" x1="14.8471" y1="24.9072" x2="25.0433" y2="30.1962" gradientUnits="userSpaceOnUse">
<stop stop-color="#C5C5C5"/>
<stop offset="1" stop-color="white"/>
</linearGradient>
<clipPath id="clip0_15233_2243">
<rect width="32" height="32" fill="white"/>
</clipPath>
</defs>
</svg>
