<svg width="20" height="21" viewBox="0 0 20 21" fill="none" xmlns="http://www.w3.org/2000/svg">
<circle cx="10" cy="10.5" r="8" fill="#F4551E"/>
<path d="M10 12.4004C10.497 12.4004 10.9003 12.8028 10.9004 13.2998C10.9004 13.7969 10.497 14.2002 10 14.2002C9.50294 14.2002 9.09961 13.7969 9.09961 13.2998C9.09966 12.8028 9.50298 12.4004 10 12.4004ZM10 6.7998C10.4665 6.7998 10.8396 7.17317 10.8398 7.63965V7.66797L10.6631 10.9062C10.6538 11.2609 10.3547 11.5508 10 11.5508C9.64544 11.5507 9.34722 11.2702 9.33789 10.9062L9.16016 7.66797C9.14154 7.20134 9.50602 6.81847 9.97266 6.7998H10Z" fill="white"/>
</svg>
