<svg width="20" height="21" viewBox="0 0 20 21" fill="none" xmlns="http://www.w3.org/2000/svg">
<g filter="url(#filter0_d_13919_1338)">
<path d="M8.91797 4.00586C9.50432 3.33515 10.5702 3.33106 11.1621 3.99707L11.3633 4.22266C11.7263 4.63074 12.2951 4.80604 12.835 4.67676L13.0693 4.62109C13.9541 4.40906 14.8246 5.01771 14.8955 5.89844L14.916 6.16113C14.9594 6.69898 15.3114 7.16802 15.8262 7.37305L16.0752 7.47168C16.9161 7.80708 17.2476 8.79301 16.7715 9.54395L16.6279 9.76953C16.3365 10.229 16.3365 10.809 16.6279 11.2686L16.7812 11.5107C17.2537 12.2562 16.9317 13.2342 16.1006 13.5762L15.7852 13.7061C15.2731 13.9171 14.9267 14.3894 14.8896 14.9277L14.873 15.1729C14.8131 16.0424 13.9712 16.6588 13.0918 16.4766L12.668 16.3887C12.1223 16.2756 11.5572 16.4708 11.208 16.8926L11.1484 16.9648C10.57 17.6638 9.47762 17.6805 8.87598 17L8.71973 16.8223C8.35792 16.413 7.78893 16.2357 7.24902 16.3633L7.02637 16.416C6.1325 16.6274 5.25834 16.0027 5.20312 15.1123L5.19434 14.957C5.16113 14.4187 4.81733 13.9445 4.30664 13.7305L3.89062 13.5557C3.08775 13.2191 2.76128 12.2836 3.18848 11.5439L3.46973 11.0576C3.74313 10.5841 3.71729 10.0011 3.40234 9.55273L3.37402 9.5127C2.85945 8.78014 3.14912 7.77466 3.98047 7.40625L4.3916 7.22461C4.90122 6.99874 5.23532 6.51174 5.25293 5.96875C5.2826 5.06399 6.16062 4.41281 7.06934 4.62207L7.27734 4.66992C7.81828 4.79486 8.38644 4.6145 8.74609 4.20312L8.91797 4.00586ZM9.42871 11.5518L7.58789 9.71094L6.6416 10.6562L9.42871 13.4434L13.3574 9.51465L12.4121 8.56934L9.42871 11.5518Z" fill="white"/>
</g>
<defs>
<filter id="filter0_d_13919_1338" x="1.24" y="1.74024" width="17.5202" height="17.5198" filterUnits="userSpaceOnUse" color-interpolation-filters="sRGB">
<feFlood flood-opacity="0" result="BackgroundImageFix"/>
<feColorMatrix in="SourceAlpha" type="matrix" values="0 0 0 0 0 0 0 0 0 0 0 0 0 0 0 0 0 0 127 0" result="hardAlpha"/>
<feOffset/>
<feGaussianBlur stdDeviation="0.88"/>
<feComposite in2="hardAlpha" operator="out"/>
<feColorMatrix type="matrix" values="0 0 0 0 0 0 0 0 0 0 0 0 0 0 0 0 0 0 0.2 0"/>
<feBlend mode="normal" in2="BackgroundImageFix" result="effect1_dropShadow_13919_1338"/>
<feBlend mode="normal" in="SourceGraphic" in2="effect1_dropShadow_13919_1338" result="shape"/>
</filter>
</defs>
</svg>
