<svg width="52" height="52" viewBox="0 0 52 52" fill="none" xmlns="http://www.w3.org/2000/svg">
<path fill-rule="evenodd" clip-rule="evenodd" d="M43.06 8.12623L26.555 2.09823C26.1966 1.96726 25.8034 1.96726 25.445 2.09823L8.939 8.12623C8.07651 8.44249 7.33203 9.01613 6.80635 9.76951C6.28067 10.5229 5.99919 11.4196 6 12.3382V27.7062C6 33.5362 7.594 37.7302 11.744 41.4612C14.71 44.1262 18.336 46.7802 21.638 48.7092C23.386 49.7302 24.34 50.0002 26 50.0002C27.66 50.0002 28.614 49.7302 30.362 48.7102C33.664 46.7802 37.289 44.1262 40.255 41.4602C44.406 37.7302 46 33.5382 46 27.7072V12.3382C46.0007 11.4195 45.7191 10.5227 45.1932 9.76929C44.6674 9.0159 43.9227 8.44232 43.06 8.12623Z" fill="#3961E1"/>
<ellipse cx="26" cy="24.75" rx="11" ry="10.25" fill="#FAE100"/>
<path d="M19 37.5V31.5L25 33.5L19.4 37.7C19.2352 37.8236 19 37.706 19 37.5Z" fill="#FAE100"/>
</svg>
