<svg width="16" height="16" viewBox="0 0 16 16" fill="none" xmlns="http://www.w3.org/2000/svg">
<path fill-rule="evenodd" clip-rule="evenodd" d="M3.97195 6.68048C4.1433 6.75588 4.29322 6.86028 4.42316 6.99223C4.55309 7.12418 4.6559 7.27643 4.73015 7.45188C4.80439 7.62443 4.84152 7.81438 4.84152 8.01738C4.84152 8.22183 4.80439 8.41033 4.73015 8.58433C4.6559 8.75688 4.55309 8.91058 4.42316 9.04253C4.29322 9.17448 4.1433 9.27888 3.97195 9.35428C3.80061 9.42968 3.61499 9.46738 3.41366 9.46738C3.21376 9.46738 3.02814 9.42968 2.85537 9.35428C2.68403 9.27888 2.5341 9.17448 2.40274 9.04253C2.27423 8.91058 2.17142 8.75688 2.09718 8.58433C2.02436 8.41033 1.98438 8.22183 1.98438 8.01738C1.98438 7.81438 2.02436 7.62443 2.09718 7.45188C2.17142 7.27643 2.27423 7.12418 2.40274 6.99223C2.5341 6.86028 2.68403 6.75588 2.85537 6.68048C3.02814 6.60508 3.21376 6.56738 3.41366 6.56738C3.61499 6.56738 3.80061 6.60508 3.97195 6.68048ZM7.98528 6.56738C8.18661 6.56738 8.37223 6.60508 8.54358 6.68048C8.71492 6.75588 8.86484 6.86028 8.99478 6.99223C9.12471 7.12418 9.22752 7.27643 9.30177 7.45188C9.37602 7.62443 9.41314 7.81438 9.41314 8.01738C9.41314 8.22183 9.37602 8.41033 9.30177 8.58433C9.22752 8.75688 9.12471 8.91058 8.99478 9.04253C8.86484 9.17448 8.71492 9.27888 8.54358 9.35428C8.37223 9.42968 8.18661 9.46738 7.98528 9.46738C7.78538 9.46738 7.59976 9.42968 7.42699 9.35428C7.25565 9.27888 7.10572 9.17448 6.97436 9.04253C6.84585 8.91058 6.74305 8.75688 6.6688 8.58433C6.59598 8.41033 6.556 8.22183 6.556 8.01738C6.556 7.81438 6.59598 7.62443 6.6688 7.45188C6.74305 7.27643 6.84585 7.12418 6.97436 6.99223C7.10572 6.86028 7.25565 6.75588 7.42699 6.68048C7.59976 6.60508 7.78538 6.56738 7.98528 6.56738ZM13.1147 6.68048C12.9434 6.60508 12.7577 6.56738 12.5564 6.56738C12.3565 6.56738 12.1709 6.60508 11.9981 6.68048C11.8268 6.75588 11.6769 6.86028 11.5455 6.99223C11.417 7.12418 11.3142 7.27643 11.2399 7.45188C11.1671 7.62443 11.1271 7.81438 11.1271 8.01738C11.1271 8.22183 11.1671 8.41033 11.2399 8.58433C11.3142 8.75688 11.417 8.91058 11.5455 9.04253C11.6769 9.17448 11.8268 9.27888 11.9981 9.35428C12.1709 9.42968 12.3565 9.46738 12.5564 9.46738C12.7577 9.46738 12.9434 9.42968 13.1147 9.35428C13.2861 9.27888 13.436 9.17448 13.5659 9.04253C13.6959 8.91058 13.7987 8.75688 13.8729 8.58433C13.9472 8.41033 13.9843 8.22183 13.9843 8.01738C13.9843 7.81438 13.9472 7.62443 13.8729 7.45188C13.7987 7.27643 13.6959 7.12418 13.5659 6.99223C13.436 6.86028 13.2861 6.75588 13.1147 6.68048Z" fill="white"/>
</svg>
