<svg width="16" height="16" viewBox="0 0 16 16" fill="none" xmlns="http://www.w3.org/2000/svg">
<path fill-rule="evenodd" clip-rule="evenodd" d="M8.00043 2.5C7.90973 2.50009 7.82086 2.52551 7.74383 2.57339C7.66679 2.62127 7.60466 2.68971 7.56443 2.771L6.12843 5.678L2.91743 6.144C2.82764 6.15715 2.7433 6.19512 2.67393 6.25365C2.60457 6.31217 2.55294 6.38891 2.52486 6.47521C2.49679 6.56152 2.49339 6.65395 2.51505 6.74208C2.5367 6.83021 2.58256 6.91054 2.64743 6.974L4.97143 9.236L4.42243 12.431C4.40684 12.5205 4.41667 12.6127 4.4508 12.6969C4.48494 12.7811 4.54201 12.8541 4.61554 12.9075C4.68907 12.961 4.77611 12.9927 4.86677 12.9992C4.95743 13.0056 5.04809 12.9865 5.12843 12.944L8.00043 11.436L10.8724 12.944C10.9528 12.9865 11.0434 13.0056 11.1341 12.9992C11.2248 12.9927 11.3118 12.961 11.3853 12.9075C11.4589 12.8541 11.5159 12.7811 11.5501 12.6969C11.5842 12.6127 11.594 12.5205 11.5784 12.431L11.0304 9.236L13.3534 6.974C13.4183 6.91054 13.4642 6.83021 13.4858 6.74208C13.5075 6.65395 13.5041 6.56152 13.476 6.47521C13.4479 6.38891 13.3963 6.31217 13.3269 6.25365C13.2576 6.19512 13.1732 6.15715 13.0834 6.144L9.87343 5.678L8.43743 2.771C8.39713 2.68956 8.33484 2.62101 8.25761 2.57312C8.18039 2.52523 8.0913 2.4999 8.00043 2.5Z" fill="#FEE500"/>
</svg>
