<svg width="16" height="16" viewBox="0 0 16 16" fill="none" xmlns="http://www.w3.org/2000/svg">
<path d="M10.6685 4.93286C10.8723 4.96994 11.0363 5.13156 11.0718 5.34204L12.356 12.9495H13.3911V13.9495H2.55811V12.9495H3.59131L4.82666 5.34497C4.86595 5.10323 5.075 4.92545 5.31982 4.92505H10.5786L10.6685 4.93286ZM4.604 12.9495H11.3413L10.1558 5.92505H5.74561L4.604 12.9495ZM15.062 8.12427H12.5581V7.12427H15.062V8.12427ZM3.39111 8.10864H0.916504V7.10864H3.39111V8.10864ZM4.99561 3.92212L4.28857 4.62915L2.62158 2.96216L3.32861 2.25513L4.99561 3.92212ZM13.3413 2.97876L11.6909 4.62915L10.9839 3.92212L12.6343 2.27173L13.3413 2.97876ZM8.47412 3.02466H7.47412V0.533447H8.47412V3.02466Z" fill="white"/>
</svg>
