<svg width="16" height="16" viewBox="0 0 16 16" fill="none" xmlns="http://www.w3.org/2000/svg">
<path d="M3.85449 2.44873C4.29426 2.10021 4.92633 2.18196 5.28125 2.59131L5.34863 2.67822L6.7998 4.76904C6.97582 5.02251 6.94582 5.35903 6.73828 5.58057L6.73633 5.58252L5.7207 6.64111C5.7235 6.65355 5.72583 6.66753 5.72949 6.68213C5.75559 6.78598 5.8054 6.94432 5.89844 7.14795C6.08446 7.55507 6.44604 8.14659 7.14551 8.84814C7.84461 9.54933 8.43459 9.91079 8.84082 10.0962C9.04418 10.189 9.20302 10.2384 9.30664 10.2642C9.32054 10.2676 9.33377 10.2693 9.3457 10.272L10.4062 9.25635C10.6259 9.04488 10.9684 9.01834 11.2197 9.19287L13.3193 10.6528H13.3184C13.8059 10.9892 13.9242 11.6762 13.5479 12.146L13.5488 12.147C12.8561 13.0218 11.5205 14.1887 9.52344 13.6235C7.05325 12.9246 5.45459 11.3427 5.07324 10.9614C5.06806 10.957 5.06151 10.9536 5.05664 10.9487C4.70611 10.5982 3.09156 8.98968 2.37793 6.479V6.47803C1.81285 4.48098 2.98468 3.14201 3.85449 2.44971V2.44873Z" fill="white" stroke="white" stroke-width="0.5" stroke-linejoin="round"/>
</svg>
