<svg width="12" height="12" viewBox="0 0 12 12" fill="none" xmlns="http://www.w3.org/2000/svg">
<path opacity="0.5" d="M6 6C5.33696 6 4.70107 5.73661 4.23223 5.26777C3.76339 4.79893 3.5 4.16304 3.5 3.5C3.5 2.83696 3.76339 2.20107 4.23223 1.73223C4.70107 1.26339 5.33696 1 6 1C6.66304 1 7.29893 1.26339 7.76777 1.73223C8.23661 2.20107 8.5 2.83696 8.5 3.5C8.5 4.16304 8.23661 4.79893 7.76777 5.26777C7.29893 5.73661 6.66304 6 6 6ZM11 11H1V10.5C1 8.567 3.236 7 6 7C8.764 7 11 8.567 11 10.5V11Z" fill="white"/>
</svg>
