<svg width="16" height="16" viewBox="0 0 16 16" fill="none" xmlns="http://www.w3.org/2000/svg">
<circle cx="7" cy="5.5" r="2.75" fill="white"/>
<path fill-rule="evenodd" clip-rule="evenodd" d="M12.15 13.6C12.15 10.9935 10.1675 9.75 6.94405 9.75C3.72057 9.75 1.75 10.9935 1.75 13.6" fill="white"/>
<path d="M12.15 13.6C12.15 10.9935 10.1675 9.75 6.94405 9.75C3.72057 9.75 1.75 10.9935 1.75 13.6" stroke="white" stroke-width="0.5" stroke-linejoin="round"/>
<g clip-path="url(#clip0_15340_298)">
<path d="M13.0528 5C13.1674 5.00013 13.2672 5.0783 13.295 5.18945L13.3673 5.48145C13.5899 5.55942 13.7935 5.67751 13.9688 5.82812L14.2589 5.74609C14.3691 5.71456 14.4866 5.76211 14.544 5.86133L14.8487 6.38867C14.9061 6.48801 14.8882 6.61362 14.8057 6.69336L14.5889 6.90234C14.6101 7.01509 14.6231 7.13111 14.6231 7.25C14.6231 7.36856 14.61 7.48423 14.5889 7.59668L14.8057 7.80664C14.8881 7.88639 14.906 8.01203 14.8487 8.11133L14.544 8.63867C14.4866 8.73785 14.369 8.78535 14.2589 8.75391L13.9688 8.6709C13.7935 8.82164 13.5899 8.93953 13.3673 9.01758L13.295 9.31055C13.2672 9.4217 13.1674 9.49988 13.0528 9.5H12.4425C12.3281 9.4996 12.228 9.42155 12.2003 9.31055L12.127 9.01758C11.9047 8.93947 11.7015 8.82146 11.5264 8.6709L11.2364 8.75488C11.1264 8.7859 11.0084 8.73774 10.9512 8.63867L10.6466 8.11133C10.5894 8.01214 10.6074 7.88635 10.6895 7.80664L10.9063 7.5957C10.8854 7.48358 10.8731 7.36819 10.8731 7.25C10.8731 7.13148 10.8853 7.01574 10.9063 6.90332L10.6895 6.69336C10.6073 6.61366 10.5894 6.4879 10.6466 6.38867L10.9512 5.86133C11.0085 5.76221 11.1263 5.714 11.2364 5.74512L11.5264 5.82812C11.7014 5.67769 11.9048 5.55948 12.127 5.48145L12.2003 5.18945C12.228 5.07845 12.3281 5.0004 12.4425 5H13.0528ZM12.7491 6.25C12.1968 6.25 11.7491 6.69772 11.7491 7.25C11.7491 7.80228 12.1968 8.25 12.7491 8.25C13.3013 8.2499 13.7491 7.80222 13.7491 7.25C13.7491 6.69778 13.3013 6.2501 12.7491 6.25Z" fill="white"/>
</g>
<defs>
<clipPath id="clip0_15340_298">
<rect width="5" height="5" fill="white" transform="translate(10.25 4.75)"/>
</clipPath>
</defs>
</svg>
