<svg width="16" height="16" viewBox="0 0 16 16" fill="none" xmlns="http://www.w3.org/2000/svg">
<path d="M8.00918 2.5C7.81899 2.5 7.65882 2.61 7.56873 2.77L6.12725 5.68L2.91396 6.15C2.73378 6.18 2.57361 6.3 2.52356 6.48C2.4635 6.66 2.52356 6.85 2.64369 6.98L4.96607 9.24L4.4155 12.43C4.38547 12.61 4.45554 12.8 4.6057 12.91C4.68578 12.97 4.79589 13 4.89599 13C4.97608 13 5.05616 12.98 5.12623 12.94L7.99917 11.43L10.8721 12.94C10.9422 12.98 11.0223 13 11.1024 13C11.2025 13 11.3026 12.97 11.3926 12.91C11.5428 12.8 11.6229 12.62 11.5828 12.43L11.0323 9.24L13.3547 6.98C13.4848 6.85 13.5348 6.66 13.4748 6.48C13.4147 6.3 13.2646 6.18 13.0844 6.15L9.87109 5.68L8.42961 2.77C8.34953 2.6 8.17936 2.5 7.98916 2.5" stroke="white" stroke-miterlimit="10"/>
</svg>
