<svg width="16" height="16" viewBox="0 0 16 16" fill="none" xmlns="http://www.w3.org/2000/svg">
<path d="M5.87066 5.71597L3.32812 7.02156V11.3576L8.09059 13.8918L12.6719 11.3576V7.02156L10.2094 5.76005" stroke="white" stroke-width="0.8" stroke-linejoin="round"/>
<path d="M3.32812 7.15298L8.09059 9.68717L12.6719 7.15298" stroke="white" stroke-width="0.8" stroke-linejoin="round"/>
<path d="M8.1168 9.45346V13.7761" stroke="white" stroke-width="0.8" stroke-linejoin="round"/>
<path fill-rule="evenodd" clip-rule="evenodd" d="M8.0002 7.56726C8.00263 7.56617 10.0471 6.33666 10.9526 4.87794C11.5102 3.98006 11.2945 2.88547 10.6169 2.39752C9.35 1.48527 8.17224 2.82234 8.0002 3.02934C7.82815 2.82234 6.65066 1.48527 5.38349 2.39752C4.70615 2.88547 4.49048 3.98006 5.0478 4.87794C5.95327 6.33666 7.99803 7.56617 8.0002 7.56726Z" stroke="white" stroke-width="0.8" stroke-linejoin="round"/>
</svg>
