<svg width="30" height="30" viewBox="0 0 30 30" fill="none" xmlns="http://www.w3.org/2000/svg">
<path d="M15 28C22.1797 28 28 22.1797 28 15C28 7.8203 22.1797 2 15 2C7.8203 2 2 7.8203 2 15C2 22.1797 7.8203 28 15 28Z" fill="black" fill-opacity="0.3"/>
<path d="M15 1.5C22.4558 1.5 28.5 7.54416 28.5 15C28.5 22.4558 22.4558 28.5 15 28.5C7.54416 28.5 1.5 22.4558 1.5 15C1.5 7.54416 7.54416 1.5 15 1.5Z" stroke="white" stroke-opacity="0.2" stroke-miterlimit="5"/>
<path d="M15 19.4129V10.5871C15 10.1599 14.4989 9.92948 14.1746 10.2075L11.5 12.5H9.5C9.22386 12.5 9 12.7239 9 13V17C9 17.2761 9.22386 17.5 9.5 17.5H11.5L14.1746 19.7925C14.4989 20.0705 15 19.8401 15 19.4129Z" fill="white"/>
<path d="M21.25 13.25L19.25 15.25M17.25 17.25L19.25 15.25M19.25 15.25L17.25 13.25L21.25 17.25" stroke="white"/>
</svg>
