<svg width="16" height="16" viewBox="0 0 16 16" fill="none" xmlns="http://www.w3.org/2000/svg">
<path fill-rule="evenodd" clip-rule="evenodd" d="M7.9993 2.27759C4.84029 2.27759 2.2793 4.48862 2.2793 7.21637C2.2793 9.29282 3.11553 10.1639 4.42107 11.0692L4.42795 13.6024C4.42844 13.7159 4.55762 13.7807 4.64873 13.7129L6.87499 12.0594C7.23846 12.1218 7.61446 12.1549 7.9993 12.1549C11.1583 12.1549 13.7193 9.94388 13.7193 7.21637C13.7193 4.48862 11.1583 2.27759 7.9993 2.27759Z" fill="white"/>
<path d="M7.9993 2.27759C4.84029 2.27759 2.2793 4.48862 2.2793 7.21637C2.2793 9.29282 3.11553 10.1639 4.42107 11.0692L4.42795 13.6024C4.42844 13.7159 4.55762 13.7807 4.64873 13.7129L6.87499 12.0594C7.23846 12.1218 7.61446 12.1549 7.9993 12.1549C11.1583 12.1549 13.7193 9.94388 13.7193 7.21637C13.7193 4.48862 11.1583 2.27759 7.9993 2.27759" stroke="white" stroke-width="0.5"/>
</svg>
