<svg width="16" height="16" viewBox="0 0 16 16" fill="none" xmlns="http://www.w3.org/2000/svg">
<g clip-path="url(#clip0_15588_520)">
<path d="M12.3037 2.69629C13.6609 4.05352 14.5 5.92893 14.5 8C14.5 10.0711 13.6609 11.9465 12.3037 13.3037L11.5967 12.5967C12.7729 11.4204 13.5 9.79493 13.5 8C13.5 6.20507 12.7729 4.57959 11.5967 3.40332L12.3037 2.69629ZM10.1816 4.81836C10.996 5.6327 11.5 6.75736 11.5 8C11.5 9.24264 10.996 10.3673 10.1816 11.1816L9.47461 10.4746C10.108 9.84123 10.5 8.9665 10.5 8C10.5 7.0335 10.108 6.15877 9.47461 5.52539L10.1816 4.81836Z" fill="white"/>
<path d="M8 12.4129V3.58711C8 3.15993 7.49894 2.92948 7.1746 3.20748L4.5 5.5H2.5C2.22386 5.5 2 5.72386 2 6V10C2 10.2761 2.22386 10.5 2.5 10.5H4.5L7.1746 12.7925C7.49894 13.0705 8 12.8401 8 12.4129Z" fill="white"/>
</g>
<defs>
<clipPath id="clip0_15588_520">
<rect width="16" height="16" fill="white"/>
</clipPath>
</defs>
</svg>
