<svg fill="none" height="26" viewBox="0 0 26 26" width="26" xmlns="http://www.w3.org/2000/svg"><path d="m20.7725 11.7256c.5496.033.9683.5051.9355 1.0547-.2887 4.814-4.1599 8.6805-8.958 8.6806-.3812 0-.7575-.0264-1.127-.0742l-2.4023 1.4434c-.91396.549-2.08277-.0785-2.13086-1.1436l-.10839-2.3945c-1.8185-1.576-3.02033-3.8782-3.1875-6.4678-.03533-.5494.3813-1.0239.93066-1.0596.54938-.0354 1.02375.3814 1.05957.9307.13704 2.1228 1.14982 3.9903 2.65723 5.2227.26457.2163.45075.5274.50586.8799l.01562.1542.07422 1.6602 1.73339-1.04c.2562-.154.5462-.2175.8272-.1983l.1201.0137.2539.0342c.255.0294.515.0439.7783.0439 3.6771-.0002 6.7381-2.9768 6.9678-6.8047.0331-.5496.505-.9684 1.0547-.9355zm-8.0225-9.7256c2.8472 0 5.1552 2.30808 5.1553 5.15527v5.12593c0 2.8473-2.308 5.1553-5.1553 5.1553-2.84713-.0001-5.15527-2.3081-5.15527-5.1553v-5.12593c.00007-2.8471 2.30819-5.15512 5.15527-5.15527z" fill="#191919"/></svg>