<svg fill="none" height="16" viewBox="0 0 20 16" width="20" xmlns="http://www.w3.org/2000/svg"><rect fill="#0a73dc" height="15" rx="7.5" width="20"/><path d="m13.9844 7.03711c.2729.01657.481.25144.4648.52441-.1437 2.39242-2.0676 4.31408-4.45213 4.31448-.18857 0-.37482-.0156-.55762-.0391l-1.19726.7197c-.45398.2726-1.03407-.0386-1.0586-.5673l-.05468-1.1914c-.90331-.7832-1.49974-1.92742-1.58301-3.21392-.01763-.27308.18887-.50957.46191-.52734.27294-.01745.50858.18997.52637.46289.06824 1.05497.57211 1.98325 1.32129 2.59567.15007.1229.24935.3076.25879.5137l.03711.8252.86133-.5166c.10921-.0656.2311-.0977.35156-.0996l.12012.0078.25292.0293c.08548.0066.17254.0098.25977.0098 1.82723-.0004 3.34843-1.47978 3.46293-3.38187.0163-.27324.2511-.48219.5244-.46582zm-3.98831-4.83399c1.41521 0 2.56251 1.14731 2.56251 2.5625v2.54786c-.0002 1.41507-1.1474 2.5625-2.56251 2.5625-1.41492-.00022-2.56235-1.14756-2.5625-2.5625v-2.54786c0-1.41506 1.14749-2.56228 2.5625-2.5625z" fill="#fff"/></svg>