<svg width="42" height="42" viewBox="0 0 42 42" fill="none" xmlns="http://www.w3.org/2000/svg">
<circle cx="21" cy="21" r="21" fill="white" fill-opacity="0.85"/>
<path d="M29.6377 13.0703L29.6416 13.0752L23.9707 18.7461L23.3867 19.3291L22.8037 19.9131L18.8193 23.8965L18.2617 24.4541L17.6787 25.0381L12.9795 29.7363L12.9746 29.7422L12.1494 28.917L16.0283 25.0381H14.6465C14.3245 25.0381 14.0625 24.7761 14.0625 24.4541V17.6504C14.0625 17.3284 14.3245 17.0664 14.6465 17.0664H18.4609L23.0127 13.2451C23.1859 13.0997 23.4293 13.0675 23.6338 13.1631C23.8394 13.2589 23.9707 13.4656 23.9707 13.6924V17.0957L28.8174 12.25L29.6377 13.0703ZM23.9707 28.4121C23.9706 28.6387 23.8393 28.8446 23.6338 28.9404C23.5559 28.9776 23.4714 28.995 23.3877 28.9951C23.2532 28.9951 23.1199 28.9485 23.0127 28.8584L18.9277 25.4297L22.8037 21.5537L23.3877 20.9707L23.9707 20.3867V28.4121Z" fill="#222222"/>
</svg>
