<svg width="42" height="42" viewBox="0 0 42 42" fill="none" xmlns="http://www.w3.org/2000/svg">
<circle cx="21" cy="21" r="21" fill="white"/>
<path d="M29.6387 13.0703L29.6426 13.0752L23.9717 18.7461L23.3877 19.3291L22.8047 19.9131L18.8203 23.8965L18.2627 24.4541L17.6797 25.0381L12.9805 29.7363L12.9756 29.7422L12.1504 28.917L16.0293 25.0381H14.6475C14.3255 25.0381 14.0635 24.7761 14.0635 24.4541V17.6504C14.0635 17.3284 14.3255 17.0664 14.6475 17.0664H18.4619L23.0137 13.2451C23.1869 13.0997 23.4302 13.0675 23.6348 13.1631C23.8404 13.2588 23.9717 13.4656 23.9717 13.6924V17.0957L28.8184 12.25L29.6387 13.0703ZM23.9717 28.4121C23.9716 28.6387 23.8403 28.8446 23.6348 28.9404C23.5569 28.9776 23.4724 28.995 23.3887 28.9951C23.2542 28.9951 23.1209 28.9485 23.0137 28.8584L18.9287 25.4297L22.8047 21.5537L23.3887 20.9707L23.9717 20.3867V28.4121Z" fill="#222222"/>
</svg>
