<svg width="42" height="42" viewBox="0 0 42 42" fill="none" xmlns="http://www.w3.org/2000/svg">
<circle cx="21" cy="21" r="21" fill="white" fill-opacity="0.35"/>
<path d="M21.0166 13.1934C21.1902 13.0478 21.4333 13.0156 21.6387 13.1113C21.8439 13.2072 21.9755 13.4132 21.9756 13.6396V28.3594C21.9756 28.586 21.844 28.7928 21.6387 28.8887C21.4332 28.9844 21.1902 28.9524 21.0166 28.8066L16.4658 24.9854H12.6514C12.3292 24.9854 12.0684 24.7235 12.0684 24.4014V17.5977C12.0685 17.2756 12.3293 17.0146 12.6514 17.0146H16.4648L21.0166 13.1934ZM28.2842 13.6172C30.1554 15.5158 31.3134 18.1222 31.3135 21C31.3134 23.8792 30.1539 26.4871 28.2812 28.3857L27.8662 27.9766L27.4512 27.5664C29.1178 25.8766 30.1474 23.5594 30.1475 21C30.1474 18.4417 29.1187 16.1254 27.4531 14.4355L27.8682 14.0264L28.2842 13.6172ZM25.1895 16.7148C26.2662 17.8207 26.9344 19.3317 26.9346 20.999C26.9345 22.6681 26.2664 24.1811 25.1875 25.2871L24.3516 24.4727C25.2277 23.5745 25.7685 22.3501 25.7686 20.999C25.7684 19.6499 25.2282 18.4276 24.3535 17.5293L25.1895 16.7148Z" fill="white"/>
</svg>
