<svg width="20" height="20" viewBox="0 0 20 20" fill="none" xmlns="http://www.w3.org/2000/svg">
<path opacity="0.9" d="M10 20C15.5228 20 20 15.5228 20 10C20 4.47715 15.5228 0 10 0C4.47715 0 0 4.47715 0 10C0 15.5228 4.47715 20 10 20Z" fill="white"/>
<path d="M7.51702 9.63269C7.51712 10.3769 8.12009 10.98 8.86426 10.98H10.7417V9.13096C10.7417 8.9204 10.9826 8.79991 11.151 8.92619L14.5595 11.4826C14.6959 11.5848 14.6958 11.7898 14.5595 11.892L11.151 14.4484C10.9826 14.5748 10.7417 14.4544 10.7417 14.2437V12.4962H8.86426C7.28278 12.4962 6.0001 11.2142 6 9.63269V5.69995H7.51702V9.63269Z" fill="#191919"/>
</svg>
