<svg width="20" height="20" viewBox="0 0 20 20" fill="none" xmlns="http://www.w3.org/2000/svg">
<path d="M0 10C0 4.47715 4.47715 0 10 0C15.5228 0 20 4.47715 20 10C20 15.5228 15.5228 20 10 20C4.47715 20 0 15.5228 0 10Z" fill="black" fill-opacity="0.07"/>
<path d="M12.748 7.51367L11.1543 7.68945C11.1152 7.36133 11.0137 7.11914 10.8496 6.96289C10.6855 6.80664 10.4727 6.72852 10.2109 6.72852C9.86328 6.72852 9.56836 6.88477 9.32617 7.19727C9.08789 7.50977 8.9375 8.16016 8.875 9.14844C9.28516 8.66406 9.79492 8.42188 10.4043 8.42188C11.0918 8.42188 11.6797 8.68359 12.168 9.20703C12.6602 9.73047 12.9062 10.4062 12.9062 11.2344C12.9062 12.1133 12.6484 12.8184 12.1328 13.3496C11.6172 13.8809 10.9551 14.1465 10.1465 14.1465C9.2793 14.1465 8.56641 13.8105 8.00781 13.1387C7.44922 12.4629 7.16992 11.3574 7.16992 9.82227C7.16992 8.24805 7.46094 7.11328 8.04297 6.41797C8.625 5.72266 9.38086 5.375 10.3105 5.375C10.9629 5.375 11.502 5.55859 11.9277 5.92578C12.3574 6.28906 12.6309 6.81836 12.748 7.51367ZM9.01562 11.1055C9.01562 11.6406 9.13867 12.0547 9.38477 12.3477C9.63086 12.6367 9.91211 12.7812 10.2285 12.7812C10.5332 12.7812 10.7871 12.6621 10.9902 12.4238C11.1934 12.1855 11.2949 11.7949 11.2949 11.252C11.2949 10.6934 11.1855 10.2852 10.9668 10.0273C10.748 9.76562 10.4746 9.63477 10.1465 9.63477C9.83008 9.63477 9.5625 9.75977 9.34375 10.0098C9.125 10.2559 9.01562 10.6211 9.01562 11.1055Z" fill="#191919"/>
</svg>
