<svg width="20" height="20" viewBox="0 0 20 20" fill="none" xmlns="http://www.w3.org/2000/svg">
<path d="M0 10C0 4.47715 4.47715 0 10 0C15.5228 0 20 4.47715 20 10C20 15.5228 15.5228 20 10 20C4.47715 20 0 15.5228 0 10Z" fill="black" fill-opacity="0.07"/>
<path d="M7.19336 11.791L8.83398 11.6211C8.88086 11.9922 9.01953 12.2871 9.25 12.5059C9.48047 12.7207 9.74609 12.8281 10.0469 12.8281C10.3906 12.8281 10.6816 12.6895 10.9199 12.4121C11.1582 12.1309 11.2773 11.709 11.2773 11.1465C11.2773 10.6191 11.1582 10.2246 10.9199 9.96289C10.6855 9.69727 10.3789 9.56445 10 9.56445C9.52734 9.56445 9.10352 9.77344 8.72852 10.1914L7.39258 9.99805L8.23633 5.52734H12.5898V7.06836H9.48438L9.22656 8.52734C9.59375 8.34375 9.96875 8.25195 10.3516 8.25195C11.082 8.25195 11.7012 8.51758 12.209 9.04883C12.7168 9.58008 12.9707 10.2695 12.9707 11.1172C12.9707 11.8242 12.7656 12.4551 12.3555 13.0098C11.7969 13.7676 11.0215 14.1465 10.0293 14.1465C9.23633 14.1465 8.58984 13.9336 8.08984 13.5078C7.58984 13.082 7.29102 12.5098 7.19336 11.791Z" fill="#191919"/>
</svg>
