<svg width="20" height="20" viewBox="0 0 20 20" fill="none" xmlns="http://www.w3.org/2000/svg">
<circle opacity="0.07" cx="9.99988" cy="10" r="10" fill="black"/>
<path d="M9.99982 14.3541C9.17655 14.3541 8.46484 14.1771 7.8647 13.8232C7.26456 13.4654 6.80099 12.9595 6.47399 12.3055C6.15083 11.6515 5.98926 10.8763 5.98926 9.97998V9.96844C5.98926 9.06823 6.15276 8.29304 6.47976 7.64289C6.81061 6.98889 7.2761 6.48492 7.87624 6.13099C8.47639 5.77706 9.18424 5.6001 9.99982 5.6001C10.8192 5.6001 11.5271 5.77706 12.1234 6.13099C12.7235 6.48492 13.1871 6.98889 13.5141 7.64289C13.8411 8.29689 14.0046 9.07207 14.0046 9.96844V9.97998C14.0046 10.8763 13.8411 11.6515 13.5141 12.3055C13.191 12.9595 12.7293 13.4654 12.1292 13.8232C11.529 14.1771 10.8192 14.3541 9.99982 14.3541ZM9.99982 12.8768C10.4499 12.8768 10.8423 12.7576 11.177 12.519C11.5117 12.2805 11.7695 11.9439 11.9503 11.5092C12.1349 11.0745 12.2273 10.5647 12.2273 9.97998V9.96844C12.2273 9.37984 12.1349 8.8701 11.9503 8.43923C11.7695 8.00451 11.5117 7.66982 11.177 7.43515C10.8423 7.19663 10.4499 7.07737 9.99982 7.07737C9.54972 7.07737 9.15732 7.19663 8.82262 7.43515C8.48793 7.66982 8.22825 8.00451 8.04359 8.43923C7.85893 8.8701 7.7666 9.37984 7.7666 9.96844V9.97998C7.7666 10.5647 7.85701 11.0745 8.03782 11.5092C8.22248 11.9439 8.48023 12.2805 8.81108 12.519C9.14577 12.7576 9.54202 12.8768 9.99982 12.8768ZM12.1119 14.9658L9.4343 11.3995H11.0558L13.7334 14.9658H12.1119Z" fill="#424242"/>
</svg>
