<svg width="20" height="20" viewBox="0 0 20 20" fill="none" xmlns="http://www.w3.org/2000/svg">
<path d="M0 10C0 4.47715 4.47715 0 10 0C15.5228 0 20 4.47715 20 10C20 15.5228 15.5228 20 10 20C4.47715 20 0 15.5228 0 10Z" fill="black" fill-opacity="0.07"/>
<path d="M7.11133 11.7207L8.70508 11.5273C8.75586 11.9336 8.89258 12.2441 9.11523 12.459C9.33789 12.6738 9.60742 12.7812 9.92383 12.7812C10.2637 12.7812 10.5488 12.6523 10.7793 12.3945C11.0137 12.1367 11.1309 11.7891 11.1309 11.3516C11.1309 10.9375 11.0195 10.6094 10.7969 10.3672C10.5742 10.125 10.3027 10.0039 9.98242 10.0039C9.77148 10.0039 9.51953 10.0449 9.22656 10.127L9.4082 8.78516C9.85352 8.79688 10.1934 8.70117 10.4277 8.49805C10.6621 8.29102 10.7793 8.01758 10.7793 7.67773C10.7793 7.38867 10.6934 7.1582 10.5215 6.98633C10.3496 6.81445 10.1211 6.72852 9.83594 6.72852C9.55469 6.72852 9.31445 6.82617 9.11523 7.02148C8.91602 7.2168 8.79492 7.50195 8.75195 7.87695L7.23438 7.61914C7.33984 7.09961 7.49805 6.68555 7.70898 6.37695C7.92383 6.06445 8.2207 5.82031 8.59961 5.64453C8.98242 5.46484 9.41016 5.375 9.88281 5.375C10.6914 5.375 11.3398 5.63281 11.8281 6.14844C12.2305 6.57031 12.4316 7.04688 12.4316 7.57812C12.4316 8.33203 12.0195 8.93359 11.1953 9.38281C11.6875 9.48828 12.0801 9.72461 12.373 10.0918C12.6699 10.459 12.8184 10.9023 12.8184 11.4219C12.8184 12.1758 12.543 12.8184 11.9922 13.3496C11.4414 13.8809 10.7559 14.1465 9.93555 14.1465C9.1582 14.1465 8.51367 13.9238 8.00195 13.4785C7.49023 13.0293 7.19336 12.4434 7.11133 11.7207Z" fill="#191919"/>
</svg>
