<svg width="20" height="20" viewBox="0 0 20 20" fill="none" xmlns="http://www.w3.org/2000/svg">
<path d="M0 10C0 4.47715 4.47715 0 10 0C15.5228 0 20 4.47715 20 10C20 15.5228 15.5228 20 10 20C4.47715 20 0 15.5228 0 10Z" fill="black" fill-opacity="0.07"/>
<path d="M12.7305 12.4707V14H6.95898C7.02148 13.4219 7.20898 12.875 7.52148 12.3594C7.83398 11.8398 8.45117 11.1523 9.37305 10.2969C10.1152 9.60547 10.5703 9.13672 10.7383 8.89062C10.9648 8.55078 11.0781 8.21484 11.0781 7.88281C11.0781 7.51562 10.9785 7.23438 10.7793 7.03906C10.584 6.83984 10.3125 6.74023 9.96484 6.74023C9.62109 6.74023 9.34766 6.84375 9.14453 7.05078C8.94141 7.25781 8.82422 7.60156 8.79297 8.08203L7.15234 7.91797C7.25 7.01172 7.55664 6.36133 8.07227 5.9668C8.58789 5.57227 9.23242 5.375 10.0059 5.375C10.8535 5.375 11.5195 5.60352 12.0039 6.06055C12.4883 6.51758 12.7305 7.08594 12.7305 7.76562C12.7305 8.15234 12.6602 8.52148 12.5195 8.87305C12.3828 9.2207 12.1641 9.58594 11.8633 9.96875C11.6641 10.2227 11.3047 10.5879 10.7852 11.0645C10.2656 11.541 9.93555 11.8574 9.79492 12.0137C9.6582 12.1699 9.54688 12.3223 9.46094 12.4707H12.7305Z" fill="#191919"/>
</svg>
