<svg width="24" height="24" viewBox="0 0 24 24" fill="none" xmlns="http://www.w3.org/2000/svg">
<path d="M9.59863 17.3589L9.62598 17.3159L9.65918 17.272C10.815 15.7533 13.0282 15.7221 14.2451 17.1792L14.3594 17.3247L14.3789 17.3511L14.3955 17.3765C14.3995 17.382 14.4061 17.3908 14.415 17.4028C14.4384 17.4343 14.478 17.4863 14.5342 17.5513C14.6474 17.6823 14.8217 17.8617 15.0527 18.0415C15.5135 18.4 16.1738 18.7397 17.04 18.7397V19.8394L16.8232 19.8345C14.6332 19.7264 13.4924 18.0055 13.4756 17.98C12.7196 16.9598 11.2799 16.9595 10.5352 17.938C10.5331 17.9413 9.369 19.8392 6.95996 19.8394V18.7397C7.8558 18.7397 8.51398 18.3909 8.96289 18.0308C9.18912 17.8492 9.35711 17.6676 9.46582 17.5356C9.51969 17.4702 9.55805 17.4186 9.58008 17.3872C9.58936 17.374 9.59521 17.3641 9.59863 17.3589ZM20.2598 15.519V9.46826C20.2595 7.2926 18.4954 5.52881 16.3193 5.52881H7.67969C5.50367 5.52882 3.73947 7.2926 3.73926 9.46826V15.519C3.73926 17.1316 5.10586 18.7397 6.95996 18.7397V19.8394L6.72559 19.8335C4.32892 19.7048 2.63965 17.6116 2.63965 15.519V9.46826C2.63986 6.68493 4.89632 4.42921 7.67969 4.4292H16.3193C19.1027 4.4292 21.3592 6.68493 21.3594 9.46826V15.519C21.3594 17.6789 19.5598 19.8391 17.04 19.8394V18.7397C18.8939 18.7395 20.2598 17.1315 20.2598 15.519ZM14.3955 17.3765L14.3945 17.3745L14.3926 17.3726L14.3955 17.3765Z" fill="black"/>
<path d="M9.16504 11.0074H10.9922V12.1061H9.16504V13.9323H8.06641V12.1061H6.24121V11.0074H8.06641V9.18127H9.16504V11.0074Z" fill="black"/>
<path d="M16.6524 11.5573C16.6524 10.8526 16.0807 10.2809 15.376 10.2809C14.6713 10.2809 14.0996 10.8526 14.0996 11.5573C14.0996 12.262 14.6713 12.8336 15.376 12.8337V13.9333C14.0638 13.9333 13 12.8695 13 11.5573C13 10.2451 14.0638 9.18129 15.376 9.18127C16.6882 9.18127 17.752 10.245 17.752 11.5573C17.752 12.8695 16.6882 13.9333 15.376 13.9333V12.8337C16.0807 12.8337 16.6524 12.262 16.6524 11.5573Z" fill="black"/>
</svg>
