<svg width="50" height="18" viewBox="0 0 50 18" fill="none" xmlns="http://www.w3.org/2000/svg">
<path d="M6.69672 12.5501H4.91229C4.87488 12.5501 4.83973 12.5342 4.81479 12.5059L1.59284 8.74426V12.4163C1.59284 12.4911 1.53275 12.5512 1.45793 12.5512H0.134908C0.0600842 12.5512 0 12.4911 0 12.4163V2.35818C0 2.28335 0.0600842 2.22327 0.134908 2.22327H1.45793C1.53275 2.22327 1.59284 2.28335 1.59284 2.35818V8.47785L4.81592 4.85797C4.83973 4.83076 4.87488 4.81489 4.91115 4.81489H6.53347C6.64457 4.81489 6.70352 4.94753 6.62756 5.03029L3.65616 8.25791L3.44416 8.50052L3.73211 8.79641L6.79422 12.3381C6.86564 12.4208 6.80669 12.5501 6.69785 12.5501H6.69672Z" fill="black"/>
<path d="M13.4327 4.81479H14.7557C14.8305 4.81479 14.8906 4.87487 14.8906 4.9497V12.4151C14.8906 12.4899 14.8305 12.55 14.7557 12.55H13.4327C13.3579 12.55 13.2978 12.4899 13.2978 12.4151V11.4424C12.7593 12.33 11.8489 12.7767 10.8105 12.7767H10.7957C9.03623 12.7767 7.58057 11.5557 7.58057 9.21238V8.15124C7.58057 5.8079 9.03623 4.58691 10.7957 4.58691H10.8105C11.8489 4.58691 12.7593 4.9735 13.2978 5.82264V4.94856C13.2978 4.87374 13.3579 4.81365 13.4327 4.81365V4.81479ZM11.197 11.4117C12.2514 11.4117 13.2978 10.5773 13.2978 8.89381V8.46868C13.2978 6.78514 12.2514 5.95075 11.197 5.95075H11.1823C10.06 5.95075 9.17227 6.70125 9.17227 8.34737V9.01512C9.17227 10.6612 10.06 11.4117 11.1823 11.4117H11.197Z" fill="black"/>
<path d="M20.7131 4.58813C22.3434 4.58813 23.6709 5.67988 23.6709 7.77268V12.4151C23.6709 12.49 23.6108 12.5501 23.536 12.5501H22.213C22.1382 12.5501 22.0781 12.49 22.0781 12.4151V7.96994C22.0781 6.60497 21.3117 5.9531 20.288 5.9531H20.2732C19.2495 5.9531 18.2564 6.66619 18.2564 8.39507V12.4163C18.2564 12.4911 18.1963 12.5512 18.1215 12.5512H16.7985C16.7237 12.5512 16.6636 12.4911 16.6636 12.4163V4.94978C16.6636 4.87496 16.7237 4.81487 16.7985 4.81487H18.1215C18.1963 4.81487 18.2564 4.87496 18.2564 4.94978V5.80912C18.8255 4.97472 19.7347 4.58813 20.6984 4.58813H20.7131Z" fill="black"/>
<path d="M30.9869 4.81479H32.3099C32.3847 4.81479 32.4448 4.87487 32.4448 4.9497V12.4151C32.4448 12.4899 32.3847 12.55 32.3099 12.55H30.9869C30.9121 12.55 30.852 12.4899 30.852 12.4151V11.4424C30.3135 12.33 29.4031 12.7767 28.3647 12.7767H28.3499C26.5904 12.7767 25.1348 11.5557 25.1348 9.21238V8.15124C25.1348 5.8079 26.5904 4.58691 28.3499 4.58691H28.3647C29.4031 4.58691 30.3135 4.9735 30.852 5.82264V4.94856C30.852 4.87374 30.9121 4.81365 30.9869 4.81365V4.81479ZM28.7512 11.4117C29.8056 11.4117 30.852 10.5773 30.852 8.89381V8.46868C30.852 6.78514 29.8056 5.95075 28.7512 5.95075H28.7365C27.6141 5.95075 26.7265 6.70125 26.7265 8.34737V9.01512C26.7265 10.6612 27.6141 11.4117 28.7365 11.4117H28.7512Z" fill="black"/>
<path d="M38.2673 4.58813C39.8976 4.58813 41.2251 5.67988 41.2251 7.77268V12.4151C41.2251 12.49 41.165 12.5501 41.0902 12.5501H39.7672C39.6924 12.5501 39.6323 12.49 39.6323 12.4151V7.96994C39.6323 6.60497 38.8659 5.9531 37.8422 5.9531H37.8274C36.8037 5.9531 35.8106 6.66619 35.8106 8.39507V12.4163C35.8106 12.4911 35.7505 12.5512 35.6757 12.5512H34.3527C34.2779 12.5512 34.2178 12.4911 34.2178 12.4163V4.94978C34.2178 4.87496 34.2779 4.81487 34.3527 4.81487H35.6757C35.7505 4.81487 35.8106 4.87496 35.8106 4.94978V5.80912C36.3797 4.97472 37.2889 4.58813 38.2526 4.58813H38.2673Z" fill="black"/>
<path d="M48.5421 4.81479H49.8651C49.9399 4.81479 50 4.87487 50 4.9497V12.4151C50 12.4899 49.9399 12.55 49.8651 12.55H48.5421C48.4672 12.55 48.4072 12.4899 48.4072 12.4151V11.4424C47.8686 12.33 46.9583 12.7767 45.9198 12.7767H45.9051C44.1456 12.7767 42.6899 11.5557 42.6899 9.21238V8.15124C42.6899 5.8079 44.1456 4.58691 45.9051 4.58691H45.9198C46.9583 4.58691 47.8686 4.9735 48.4072 5.82264V4.94856C48.4072 4.87374 48.4672 4.81365 48.5421 4.81365V4.81479ZM46.3064 11.4117C47.3607 11.4117 48.4072 10.5773 48.4072 8.89381V8.46868C48.4072 6.78514 47.3607 5.95075 46.3064 5.95075H46.2917C45.1693 5.95075 44.2816 6.70125 44.2816 8.34737V9.01512C44.2816 10.6612 45.1693 11.4117 46.2917 11.4117H46.3064Z" fill="black"/>
</svg>
