<svg width="16" height="16" viewBox="0 0 16 16" fill="none" xmlns="http://www.w3.org/2000/svg">
<circle cx="8" cy="8" r="7.5" fill="#F4551E"/>
<path fill-rule="evenodd" clip-rule="evenodd" d="M9.87116 9.11083C8.48176 9.09395 7.55005 8.08329 7.55005 6.87805C7.55005 5.57059 8.54209 4.55005 9.90655 4.55005C11.2491 4.55005 12.282 5.57721 12.282 6.87805C12.282 7.60584 12.0533 8.12297 11.3619 9.10239L11.3611 9.10352L9.8858 11.163H8.42907L9.87116 9.11083ZM9.90675 8.0079C10.5582 8.0079 11.0463 7.52557 11.0463 6.8779C11.0463 6.23023 10.5582 5.7479 9.90675 5.7479C9.26955 5.7479 8.79575 6.2255 8.79575 6.8779C8.79575 7.5303 9.26955 8.0079 9.90675 8.0079Z" fill="white"/>
<path fill-rule="evenodd" clip-rule="evenodd" d="M6.55001 11.2H5.30001V6.48289L4.50001 7.28289L3.71716 6.50005L5.41716 4.80005H6.55001V11.2Z" fill="white"/>
</svg>
