<svg width="14" height="14" viewBox="0 0 14 14" fill="none" xmlns="http://www.w3.org/2000/svg">
<path d="M7.00073 5.03906C7.21382 5.03911 7.42445 5.06201 7.62964 5.10645L8.12964 5.21484L7.92944 5.68555C7.87491 5.81388 7.84645 5.95298 7.84644 6.09668C7.8467 6.68055 8.32014 7.15422 8.90405 7.1543C9.04783 7.15426 9.18726 7.12587 9.31616 7.07129L9.78589 6.87207L9.89429 7.37109C9.93878 7.57607 9.96167 7.78761 9.96167 8.00098C9.9612 9.63599 8.63577 10.9616 7.00073 10.9619C5.36541 10.9619 4.03929 9.63619 4.03882 8.00098C4.03882 6.36536 5.36512 5.03906 7.00073 5.03906ZM6.99976 2.4502C10.0532 2.4502 12.5496 4.73322 12.5496 7.57715C12.5495 7.8384 12.3382 8.04979 12.0769 8.0498C11.8156 8.0498 11.6043 7.83841 11.6042 7.57715C11.6042 5.28105 9.55468 3.39648 6.99976 3.39648C4.44493 3.39658 2.39624 5.28111 2.39624 7.57715C2.39622 7.83841 2.18387 8.0498 1.92261 8.0498C1.66154 8.04958 1.44997 7.83827 1.44995 7.57715C1.44995 4.73328 3.94644 2.45029 6.99976 2.4502Z" fill="#767676"/>
</svg>
