<svg width="20" height="14" viewBox="0 0 20 14" fill="none" xmlns="http://www.w3.org/2000/svg">
<path fill-rule="evenodd" clip-rule="evenodd" d="M7.15624 0.5C3.77031 0.5 1 3.03945 1 6.19452C1 8.50311 1.96191 9.61893 3.30859 10.6193V13.3511C3.30859 13.4666 3.4625 13.5435 3.53945 13.4666L5.88651 11.7351L5.92499 11.7736C6.30976 11.8506 6.733 11.889 7.11776 11.889C10.5037 11.889 13.274 9.34959 13.274 6.19452C13.274 3.03945 10.5806 0.5 7.15624 0.5ZM5.11669 7.65662C5.73232 7.65662 6.23251 7.31033 6.38642 6.73319H7.27138C7.04052 7.81053 6.23251 8.5031 5.11669 8.5031C3.80849 8.5031 2.80811 7.54119 2.80811 6.19451C2.80811 4.84784 3.84697 3.88593 5.11669 3.88593C6.23251 3.88593 7.079 4.61698 7.30985 5.69432H6.4249C6.27099 5.11717 5.7708 4.73241 5.15517 4.73241C4.27021 4.73241 3.69306 5.34803 3.69306 6.19451C3.69306 7.041 4.30869 7.65662 5.11669 7.65662ZM10.1958 8.42615H11.0038H11.0423V6.42537C11.0423 6.00213 10.9269 5.69432 10.696 5.46346C10.4651 5.2326 10.1958 5.11717 9.84951 5.11717C9.38779 5.11717 9.07998 5.27108 8.8876 5.57889V3.88593H8.07959V8.38767H8.8876V6.69471C8.8876 6.19451 9.15693 5.92518 9.58017 5.92518C9.96494 5.92518 10.1958 6.15604 10.1958 6.57928V8.42615Z" fill="black"/>
<path d="M17.0249 5.1499H18.7749V6.1499H17.0249V7.8999H16.0249V6.1499H14.2749V5.1499H16.0249V3.3999H17.0249V5.1499Z" fill="black"/>
</svg>
