<svg width="14" height="14" viewBox="0 0 14 14" fill="none" xmlns="http://www.w3.org/2000/svg">
<path fill-rule="evenodd" clip-rule="evenodd" d="M11.05 1.9375V8.7151L11.0319 8.96865C10.9071 9.84098 10.1568 10.5115 9.24995 10.5115C8.25584 10.5115 7.44995 9.70565 7.44995 8.71156C7.44995 7.71747 8.25584 6.9116 9.24995 6.9116C9.49815 6.9116 9.73472 6.96186 9.94995 7.05279V3.56258L5.54995 4.49185V9.71054C5.54995 10.7046 4.74406 11.5115 3.74995 11.5115C2.75584 11.5115 1.94995 10.7056 1.94995 9.71154C1.94995 8.71744 2.75584 7.91157 3.74995 7.91157C3.99815 7.91157 4.23472 7.96184 4.44995 8.05277V3.43012L11.05 1.9375Z" fill="#767676"/>
</svg>
