<svg width="14" height="14" viewBox="0 0 14 14" fill="none" xmlns="http://www.w3.org/2000/svg">
<path d="M10 2C10.8284 2 11.5 2.67157 11.5 3.5C11.5 4.32843 10.8284 5 10 5C9.60443 5 9.24555 4.8459 8.97754 4.5957L5.46973 6.7002C5.48939 6.79709 5.5 6.89731 5.5 7C5.5 7.10236 5.48926 7.20223 5.46973 7.29883L8.97754 9.40332C9.24549 9.15339 9.60467 9 10 9C10.8284 9 11.5 9.67157 11.5 10.5C11.5 11.3284 10.8284 12 10 12C9.17157 12 8.5 11.3284 8.5 10.5C8.5 10.4294 8.50618 10.36 8.51562 10.292L4.95508 8.15527C4.69555 8.37007 4.3632 8.5 4 8.5C3.17157 8.5 2.5 7.82843 2.5 7C2.5 6.17157 3.17157 5.5 4 5.5C4.36275 5.5 4.69569 5.62845 4.95508 5.84277L8.51562 3.70703C8.50626 3.63929 8.5 3.57031 8.5 3.5C8.5 2.67157 9.17157 2 10 2Z" fill="#767676"/>
</svg>
