<svg width="14" height="14" viewBox="0 0 14 14" fill="none" xmlns="http://www.w3.org/2000/svg">
<path fill-rule="evenodd" clip-rule="evenodd" d="M2.85044 3.74468C1.71652 4.82032 1.71652 6.58548 2.85044 7.66113C3.17026 7.96452 6.31035 11.3018 6.31035 11.3018C6.4848 11.4673 6.7174 11.55 6.95 11.55C7.1826 11.55 7.4152 11.4673 7.58965 11.3018C7.58965 11.3018 11.0205 7.74387 11.0496 7.71629C12.1835 6.64065 12.1835 4.87548 11.0496 3.79984C10.4971 3.27581 9.85749 3 9.10154 3C8.37467 3 7.56057 3.55161 6.95 4.15839C6.31035 3.55161 5.49626 3 4.76938 3C4.04251 3 3.37379 3.22065 2.85044 3.74468Z" fill="#767676"/>
</svg>
