<svg width="16" height="16" viewBox="0 0 16 16" fill="none" xmlns="http://www.w3.org/2000/svg">
<path d="M9.51727 3.08331C12.5866 3.08352 15.0827 5.20193 15.0827 7.80597C15.0826 9.21631 14.3581 10.5258 13.0856 11.4271V13.8323C13.0856 13.9732 13.0058 14.102 12.8796 14.1653C12.8276 14.1915 12.7711 14.2044 12.7145 14.2044C12.6355 14.2044 12.5567 14.1787 12.4909 14.1292L10.3015 12.4778C10.0259 12.5124 9.76784 12.5286 9.51727 12.5286C9.51529 12.5286 9.51246 12.5287 9.51044 12.5286C10.4713 11.629 11.0641 10.4206 11.0641 9.09015C11.064 6.52901 8.87795 4.41355 6.06512 4.10773C7.01512 3.46856 8.21352 3.08331 9.51727 3.08331ZM5.36493 5.31573C7.81826 5.31573 9.81414 7.00849 9.81415 9.09015C9.81415 10.4306 8.98395 11.6071 7.73895 12.2767C7.05116 12.647 6.23906 12.8655 5.36591 12.8655C5.16591 12.8655 4.95881 12.851 4.73798 12.8235L2.98895 14.1439C2.93651 14.1838 2.8735 14.2034 2.81024 14.2034C2.76524 14.2034 2.71951 14.194 2.67743 14.1732C2.57671 14.1228 2.51351 14.0199 2.51337 13.9075V11.9847C1.4967 11.2647 0.916687 10.2172 0.916687 9.09015C0.916886 7.18115 2.59645 5.60269 4.76727 5.35382H4.76825C4.96395 5.33175 5.16216 5.31576 5.36493 5.31573ZM5.14911 10.7278V10.7269V10.7278ZM4.02313 8.56769V8.56866V8.56769Z" fill="#191919"/>
</svg>
