<svg width="36" height="36" viewBox="0 0 36 36" fill="none" xmlns="http://www.w3.org/2000/svg">
<circle cx="18" cy="18" r="18" fill="black" fill-opacity="0.07"/>
<path d="M14.588 10.6436H21.4122V8.78906H23.045V10.6436H24.5284C25.4295 10.6438 26.1603 11.3742 26.1603 12.2754V24.2188C26.1602 25.1198 25.4295 25.8503 24.5284 25.8506H11.4718C10.5706 25.8505 9.84005 25.12 9.83997 24.2188V12.2754C9.83997 11.3741 10.5705 10.6436 11.4718 10.6436H12.9552V8.78906H14.588V10.6436ZM17.0353 19.3779L14.5978 16.9395L13.5392 17.998L16.507 20.9648L17.0353 21.4941L17.5646 20.9648L22.3868 16.1436L21.3282 15.085L17.0353 19.3779Z" fill="#949494"/>
</svg>
