<svg width="14" height="14" viewBox="0 0 14 14" fill="none" xmlns="http://www.w3.org/2000/svg">
<path fill-rule="evenodd" clip-rule="evenodd" d="M8.94995 2.61304L12.5521 4.38013V7.3416H11.4534V5.03811L10.05 4.38777V10.0812C10.05 10.0851 10.05 10.0891 10.05 10.0931C10.05 11.17 9.17691 12.0431 8.09995 12.0431C7.023 12.0431 6.14995 11.17 6.14995 10.0931C6.14995 9.01611 7.023 8.14306 8.09995 8.14306C8.40457 8.14306 8.693 8.21295 8.94995 8.33759V2.61304ZM1.44995 2.95185H7.54995V4.05185H1.44995V2.95185ZM1.44995 5.45185H7.54995V6.55185H1.44995V5.45185ZM1.44995 7.95185H5.54995V9.05185H1.44995V7.95185Z" fill="#767676"/>
</svg>
