<svg width="14" height="14" viewBox="0 0 14 14" fill="none" xmlns="http://www.w3.org/2000/svg">
<path fill-rule="evenodd" clip-rule="evenodd" d="M12.0698 5.76667C11.9875 5.51233 11.7715 5.33067 11.5075 5.29233L8.73883 4.87667L7.5105 2.38867C7.3925 2.149 7.15317 2 6.88583 2H6.8855C6.6185 2 6.37883 2.14867 6.2605 2.38867L5.00983 4.89333L2.26417 5.29233C1.9995 5.33067 1.78383 5.51233 1.7015 5.767C1.6185 6.02133 1.6865 6.295 1.87783 6.48133L3.87317 8.445L3.4045 11.179C3.35917 11.4427 3.4655 11.704 3.6815 11.861C3.89717 12.018 4.1785 12.039 4.4155 11.914L6.8995 10.623L9.3555 11.914C9.4585 11.9683 9.56983 11.9953 9.6805 11.9953C9.82483 11.9953 9.9675 11.95 10.0902 11.861C10.3062 11.704 10.4122 11.4427 10.3672 11.1793L9.90717 8.41767L11.8938 6.48133C12.0852 6.29467 12.1525 6.021 12.0698 5.76667Z" fill="#767676"/>
</svg>
