<svg width="40" height="40" viewBox="0 0 40 40" fill="none" xmlns="http://www.w3.org/2000/svg">
<path fill-rule="evenodd" clip-rule="evenodd" d="M34.4228 34.9997C36.347 34.9997 37.5498 32.917 36.5883 31.2504L22.1668 6.25314C21.2048 4.58554 18.798 4.58554 17.8359 6.25313L3.41444 31.2504C2.4529 32.917 3.65575 34.9997 5.5799 34.9997H34.4228Z" fill="#F4551E"/>
<path d="M20 25.625C21.0355 25.625 21.875 26.4645 21.875 27.5C21.875 28.5355 21.0355 29.375 20 29.375C18.9645 29.375 18.125 28.5355 18.125 27.5C18.125 26.4645 18.9645 25.625 20 25.625ZM20.5244 15C21.2527 15.0003 21.8268 15.6206 21.7705 16.3467L21.2842 22.5967C21.2336 23.2473 20.6907 23.7498 20.0381 23.75H19.9121C19.2565 23.7498 18.7126 23.2429 18.666 22.5889L18.2207 16.3389C18.1692 15.6155 18.7417 15.0003 19.4668 15H20.5244Z" fill="white"/>
</svg>
