<svg width="36" height="36" viewBox="0 0 36 36" fill="none" xmlns="http://www.w3.org/2000/svg">
<circle cx="18" cy="18" r="18" fill="black" fill-opacity="0.07"/>
<path fill-rule="evenodd" clip-rule="evenodd" d="M12.2207 21.8742C13.6112 20.7134 15.3561 20.5474 17.222 21.3997C19.5797 22.4767 21.394 23.4405 24.5049 21.8742H24.531V12.4326H24.5049C21.394 13.999 19.5797 13.0352 17.222 11.9582C15.3561 11.1059 13.6112 11.2718 12.2207 12.4326V27.0891" fill="#1683FF"/>
<path d="M12.2207 21.8742C13.6112 20.7134 15.3561 20.5474 17.222 21.3997C19.5797 22.4767 21.394 23.4405 24.5049 21.8742H24.531V12.4326H24.5049C21.394 13.999 19.5797 13.0352 17.222 11.9582C15.3561 11.1059 13.6112 11.2718 12.2207 12.4326V27.0891" stroke="#1683FF" stroke-width="1.5" stroke-linejoin="round"/>
</svg>
