<svg width="34" height="34" viewBox="0 0 34 34" fill="none" xmlns="http://www.w3.org/2000/svg">
<circle cx="17" cy="17" r="17" fill="black" fill-opacity="0.07"/>
<path d="M14.5344 10.8803C14.9567 10.8803 15.2998 11.2227 15.3 11.645V22.3549C15.3 22.7774 14.9569 23.1206 14.5344 23.1206H12.6642C12.2419 23.1204 11.8996 22.7773 11.8996 22.3549V11.645C11.8998 11.2228 12.242 10.8805 12.6642 10.8803H14.5344ZM21.3351 10.8803C21.7575 10.8805 22.0998 11.2236 22.0998 11.646V22.3559C22.0996 22.7781 21.7574 23.1204 21.3351 23.1206H19.465C19.0427 23.1206 18.6996 22.7782 18.6994 22.3559V11.646C18.6994 11.2235 19.0425 10.8803 19.465 10.8803H21.3351Z" fill="black" fill-opacity="0.9"/>
</svg>
