<svg width="12" height="12" viewBox="0 0 12 12" fill="none" xmlns="http://www.w3.org/2000/svg">
<path d="M7.79185 10.0023C7.56816 10.0023 7.33254 9.97001 7.08201 9.89946C5.95163 9.58196 4.87791 8.94696 3.9742 8.05914C3.06751 7.16249 2.4203 6.10416 2.10117 4.98998C1.77905 3.87579 2.2324 2.84098 3.37173 2.07075C3.56261 1.94434 3.82508 1.99137 3.95631 2.17952L5.13143 3.84345C5.24476 4.00808 5.22687 4.22857 5.08967 4.36968L4.37386 5.10463C4.4186 5.29278 4.60948 5.88662 5.38793 6.65685C6.16637 7.42414 6.77183 7.61522 6.96271 7.65638L7.70834 6.95083C7.85449 6.8156 8.07818 6.79502 8.24222 6.90967L9.6977 7.90921C9.85577 8.01798 9.96314 8.18849 9.99297 8.37663C10.0198 8.56478 9.96911 8.74999 9.85279 8.89698C9.42032 9.43203 8.73732 9.99941 7.79185 9.99941V10.0023Z" fill="#767676"/>
</svg>
