<svg fill="none" height="30" viewBox="0 0 30 30" width="30" xmlns="http://www.w3.org/2000/svg"><rect fill="#fff" fill-opacity=".07" height="30" rx="15" width="30"/><path d="m11.3401 18.5023c.4445.4444 2.4778 2.4889 5.6389 3.3833 2.3945.6778 4-.7055 4.8667-1.8.3667-.4555.2555-1.1333-.2278-1.4666l-2.7167-1.8889c-.2-.1389-.4722-.1167-.6444.05l-1.4889 1.4278s-1.3222-.0945-3.1833-1.9612c-1.8611-1.8666-1.9611-3.1888-1.9611-3.1888l1.4277-1.4889c.1667-.1778.1889-.4445.05-.6445l-1.8777-2.70553c-.3334-.47778-1.0111-.58889-1.4667-.22778-1.08888.86667-2.47777 2.47781-1.8 4.87221.9 3.1667 2.9389 5.2 3.3833 5.6445z" stroke="#fff" stroke-linejoin="round" stroke-width="1.3"/></svg>