<svg width="30" height="30" viewBox="0 0 30 30" fill="none" xmlns="http://www.w3.org/2000/svg">
<rect width="30" height="30" rx="15" fill="black" fill-opacity="0.04"/>
<path d="M15.007 7.84955C18.0855 7.85331 20.6686 10.1633 20.6925 13.122C22.8544 13.8107 24.4802 15.6574 24.4825 17.9199V17.9257C24.4787 20.7651 21.9373 22.9466 18.9406 23.0175H10.924V23.0087C8.03851 22.9 5.60776 20.8203 5.52161 18.0976H5.5177V17.7978H5.52161C5.6106 15.0009 8.17378 12.8788 11.1622 12.8788C12.8741 12.879 14.4252 13.5655 15.4679 14.6689L15.5714 14.7783L15.462 14.8818L15.1095 15.2138L14.757 15.5468L14.6476 15.6494L14.545 15.54C13.7507 14.6995 12.5375 14.1486 11.1622 14.1484C8.67201 14.1484 6.78777 15.919 6.78723 17.9472V17.9482C6.78726 19.9767 8.67165 21.747 11.1622 21.747H18.9093C21.2912 21.6909 23.0942 20.042 23.2072 18.1122L23.212 17.9247L23.2081 17.7548V17.7538C23.1229 16.0918 21.7896 14.6436 19.8947 14.2187L19.4757 14.1249L19.3468 14.0956L19.3595 13.9638L19.4025 13.537C19.4089 13.4715 19.4145 13.4079 19.4181 13.3456L19.423 13.163L19.4161 12.9501V12.9492C19.2993 10.9228 17.527 9.23051 15.2296 9.12396L15.006 9.11908C13.2339 9.12145 11.7411 10.0658 11.0323 11.4003L10.9884 11.4824L10.8956 11.4804C10.5089 11.4702 10.1381 11.5156 9.81653 11.5771L9.55188 11.6279L9.64758 11.3759C10.4392 9.30208 12.5649 7.85261 15.005 7.84955H15.007Z" fill="black"/>
</svg>
