<svg width="44" height="44" viewBox="0 0 44 44" fill="none" xmlns="http://www.w3.org/2000/svg">
<rect width="44" height="44" fill="#FFEDCA"/>
<defs>
<linearGradient id="paint0_linear_1164_200149" x1="16.2977" y1="10.3418" x2="29.0744" y2="33.5861" gradientUnits="userSpaceOnUse">
<stop stop-color="#FFB199"/>
<stop offset="1" stop-color="#FF840C"/>
</linearGradient>
</defs>
<path d="M16.0073 11.3943C17.2393 11.3943 18.2372 12.3931 18.2381 13.6242V21.1728C18.2381 22.8765 19.573 24.1675 21.1069 24.1675H26.0789L24.0443 22.0819C23.6454 21.6558 23.4293 21.0904 23.4425 20.5068C23.4557 19.9233 23.697 19.3682 24.1148 18.9605C24.5326 18.5529 25.0934 18.3252 25.6771 18.3264C26.2608 18.3275 26.8208 18.5574 27.2369 18.9667L32.502 24.3628C33.0146 24.8897 33.3015 25.5958 33.3015 26.331C33.3015 27.0661 33.0146 27.7722 32.502 28.2991L27.2369 33.6935C26.8513 34.0886 26.3329 34.3267 25.7819 34.3618C25.2309 34.3969 24.6864 34.2265 24.2537 33.8836L24.083 33.7322C23.6598 33.3192 23.418 32.755 23.4107 32.1637C23.4035 31.5724 23.6314 31.0024 24.0443 30.5792L25.9486 28.6273H21.1069C17.0087 28.6273 13.7782 25.2376 13.7773 21.1728V13.6242C13.7773 12.3931 14.7761 11.3943 16.0073 11.3943Z" fill="url(#paint0_linear_1164_200149)"/>
</svg>
