<svg fill="none" height="17" viewBox="0 0 17 17" width="17" xmlns="http://www.w3.org/2000/svg" xmlns:xlink="http://www.w3.org/1999/xlink"><clipPath id="a"><path d="m3 3h11v11h-11z"/></clipPath><rect fill="#f4551e" height="17" rx="8.5" width="17"/><g clip-path="url(#a)"><path d="m8.40527 3.84045c1.34802 0 2.48733.42076 3.29003 1.17481.8032.75454 1.2647 1.83805 1.2647 3.15234v.00586c-.0001.89467-.2007 1.61064-.5508 2.10454-.3514.4956-.8516.7646-1.4375.7646-.7044 0-1.23531-.3838-1.47268-.9307l-.0205-.041c-.30049.6416-.86209.9716-1.56055.9717-.58363 0-1.07726-.2466-1.42383-.6797-.34564-.43203-.54289-1.04599-.54297-1.77928v-.00586c0-1.38004.8208-2.37109 1.9668-2.37109.57874.00005 1.07682.27125 1.33691.71875v-.59668h1.23922v2.64746c0 .3296.0589.57267.1573.73047.0963.15428.2313.2294.3974.22949.2088 0 .3946-.13741.5313-.42871.1368-.29162.2177-.72649.2178-1.29004v-.00586c-.0001-1.03109-.3374-1.865-.9307-2.44141-.5936-.57666-1.44904-.90137-2.49513-.90137-1.05476.00005-1.94642.37683-2.57422 1.02637-.62796.64972-.99609 1.57664-.99609 2.68262v.00586c.0001 1.1943.39182 2.11928 1.06543 2.74608.67424.6274 1.63779.9619 2.79297.9619.68795 0 1.37394-.1041 1.84764-.2783l.0801-.0303v1.043l-.04.0146c-.57278.1966-1.245.2969-1.97075.2969-1.44469 0-2.67942-.442-3.55371-1.2607-.8748-.8192-1.38278-2.0106-1.38282-3.49904v-.00586c.00005-1.40254.48735-2.5866 1.32911-3.41992.84167-.83309 2.03352-1.31148 3.43554-1.31153zm-.17675 3.49512c-.28057 0-.50201.11435-.65528.32617-.15493.21418-.24411.53256-.24414.94336v.00586c.00002.41611.09001.74043.24512.95899.15369.21632.37424.333.64844.333.2798-.00001.5083-.11945.66894-.33691.16192-.21937.25775-.54224.25781-.94922v-.0166c0-.40147-.09572-.71932-.25683-.93457-.15976-.21325-.38686-.32998-.66406-.33008z" fill="#fff" stroke="#fff" stroke-width=".12"/></g></svg>