<svg fill="none" height="30" viewBox="0 0 30 30" width="30" xmlns="http://www.w3.org/2000/svg"><path d="m13.874 8c3.2441 0 5.8737 2.6305 5.874 5.874 0 1.3916-.4851 2.6693-1.2939 3.6758l3.958 3.958-.46.459-.4599.46-3.96-3.959c-1.0037.8004-2.2745 1.2802-3.6582 1.2802-3.244-.0003-5.874-2.6304-5.874-5.874.00038-3.2432 2.6302-5.87361 5.874-5.874zm0 1.30078c-2.5257.00039-4.57284 2.04782-4.57322 4.57322 0 2.5257 2.04722 4.5739 4.57322 4.5742 2.5263 0 4.5742-2.0482 4.5742-4.5742-.0003-2.5256-2.0481-4.57322-4.5742-4.57322z" fill="#000"/></svg>