<svg width="44" height="44" viewBox="0 0 44 44" fill="none" xmlns="http://www.w3.org/2000/svg">
<rect width="44" height="44" fill="#EBEFFF"/>
<defs>
<linearGradient id="paint0_linear_2717_38367" x1="17.966" y1="10.714" x2="26.781" y2="33.286" gradientUnits="userSpaceOnUse">
<stop stop-color="#89A8FE"/>
<stop offset="1" stop-color="#9B94FF"/>
</linearGradient>
</defs>
<path d="M33.6151 25.1143C32.8999 27.4489 31.4668 29.4986 29.5195 30.9716C27.8102 32.2588 25.7758 33.044 23.6448 33.2389C21.5139 33.4338 19.3708 33.0307 17.4563 32.075C15.5417 31.1192 13.9316 29.6486 12.8066 27.8283C11.6817 26.008 11.0865 23.9102 11.0879 21.7703C11.0802 19.2726 11.892 16.8412 13.3988 14.8491C14.8711 12.9016 16.9201 11.4682 19.2543 10.7527C19.4083 10.7049 19.5723 10.7 19.7288 10.7387C19.8853 10.7773 20.0282 10.858 20.1422 10.9719C20.2562 11.0859 20.3368 11.2288 20.3755 11.3853C20.4141 11.5418 20.4092 11.7059 20.3614 11.8598C19.9798 13.1228 19.8584 14.4502 20.0046 15.7615C20.1509 17.0729 20.5617 18.3409 21.2122 19.4889C21.8627 20.6368 22.7393 21.6409 23.7891 22.4402C24.8389 23.2396 26.0399 23.8176 27.3195 24.1393C29.0303 24.5687 30.8255 24.5256 32.5133 24.0152C32.6672 23.9674 32.8313 23.9625 32.9878 24.0011C33.1442 24.0398 33.2872 24.1204 33.4012 24.2344C33.5151 24.3484 33.5958 24.4913 33.6344 24.6478C33.6731 24.8043 33.6682 24.9683 33.6203 25.1223L33.6151 25.1143Z" fill="url(#paint0_linear_2717_38367)"/>
<path d="M29.1043 11.0256C29.415 10.1852 30.6039 10.1852 30.9145 11.0256L31.4425 12.4512C31.5393 12.716 31.7479 12.9246 32.0119 13.0223L33.4383 13.5503C34.2787 13.8609 34.2787 15.0489 33.4383 15.3596L32.0127 15.8876C31.7487 15.9844 31.5402 16.1938 31.4425 16.4578L30.9145 17.8834C30.6039 18.7238 29.415 18.7238 29.1043 17.8834L28.5763 16.4578C28.5282 16.3273 28.4523 16.2088 28.3541 16.1104C28.2558 16.0119 28.1374 15.9359 28.007 15.8876L26.5805 15.3596C25.7401 15.0489 25.7401 13.8609 26.5805 13.5494L28.0061 13.0214C28.2701 12.9246 28.4787 12.716 28.5763 12.452L29.1043 11.0256Z" fill="#B5B9FF"/>
</svg>
