<svg fill="none" height="30" viewBox="0 0 30 30" width="30" xmlns="http://www.w3.org/2000/svg"><path d="m8.69775 13.2c.99427 0 1.80065.8055 1.80075 1.7998 0 .9943-.80639 1.8007-1.80075 1.8007-.99413-.0002-1.7998-.8066-1.7998-1.8007.00015-.9941.80576-1.7996 1.7998-1.7998zm6.30175 0c.9943 0 1.8006.8055 1.8008 1.7998 0 .9943-.8064 1.8007-1.8008 1.8007-.9942-.0002-1.7998-.8065-1.7998-1.8007.0002-.9941.8057-1.7996 1.7998-1.7998zm6.3018 0c.9942 0 1.8006.8055 1.8008 1.7998 0 .9943-.8065 1.8007-1.8008 1.8007-.9943-.0001-1.7998-.8065-1.7998-1.8007.0001-.9942.8056-1.7997 1.7998-1.7998z" fill="#000"/></svg>