<svg width="97" height="97" viewBox="0 0 97 97" fill="none" xmlns="http://www.w3.org/2000/svg">
<path d="M16.6631 45.9316C12.5985 52.8789 14.012 67.0143 14.012 67.0143L44.8505 65.4711L41.8938 48.7649" fill="#FFD677"/>
<path d="M13.7356 62.8537C14.4671 70.9429 14.7325 72.1404 15.7911 77.276C17.2787 84.5011 20.7508 87.6028 25.0717 87.8436C29.2814 88.0781 31.0992 84.8221 30.2968 79.5815C31.3893 79.6062 32.414 79.7945 32.5035 80.1617C33.772 87.2201 36.5065 88.217 40.1113 88.0442C44.4383 87.8343 46.4351 85.3992 46.0895 77.5877C45.7963 70.9429 45.4352 66.2517 44.679 63.3598C36.0651 64.9122 19.8064 63.8289 13.7356 62.8506V62.8537Z" fill="#A37944"/>
<path d="M30.2961 79.5817C31.0986 84.8223 29.2777 88.0197 25.071 87.8438C16.8213 87.4981 15.6022 77.2423 14.7041 71.369C13.9973 66.7457 13.5282 61.5175 14.0467 56.6504" stroke="#876439" stroke-width="2" stroke-linecap="round" stroke-linejoin="round"/>
<path d="M28.9888 79.6373C30.3992 79.4768 32.3775 79.6465 32.5072 80.1619C33.7756 87.2203 36.5101 88.2172 40.1149 88.0444C44.4419 87.8345 46.4388 85.3994 46.0931 77.5879C45.587 66.1717 44.516 62.5298 43.6858 57.3818" stroke="#876439" stroke-width="2" stroke-linecap="round" stroke-linejoin="round"/>
<path d="M47.953 35.571C48.1999 30.4014 46.0704 24.0806 42.5551 20.4912C42.447 18.2043 41.5829 17.1055 40.8885 16.5716C39.7064 15.6611 37.7157 15.2754 35.3393 16.5315C32.7715 15.6334 30.8548 14.9606 27.8272 14.7322C25.2779 14.5408 22.5218 14.6211 20.1824 15.2013C19.1207 14.3371 16.9572 13.7692 15.4356 14.2168C13.9974 14.6396 12.6086 16.0778 12.4758 18.4419C8.42351 21.411 5.26621 26.633 4.53784 32.4877C3.39282 41.6911 7.07479 49.8606 19.3367 52.0704C27.1544 53.4778 35.7559 52.1074 39.9965 49.6106C44.9377 46.7033 47.6321 42.2899 47.9499 35.571H47.953Z" fill="#FFD677" stroke="#FCB21D" stroke-width="2" stroke-linecap="round" stroke-linejoin="round"/>
<path d="M25.4236 37.3613C25.4236 37.3613 25.2507 40.5402 22.7817 40.2717C19.8929 39.9569 20.9885 35.6176 20.9885 35.6176L23.3928 35.1484L25.4236 37.3613Z" fill="#D37A6C" stroke="#565656" stroke-width="1.7" stroke-linecap="round" stroke-linejoin="round"/>
<path d="M16.1581 32.5464L18.1056 33.4476" stroke="#565656" stroke-width="1.7" stroke-linecap="round" stroke-linejoin="round"/>
<path d="M16.0803 37.0491L18.2932 36.188" stroke="#565656" stroke-width="1.7" stroke-linecap="round" stroke-linejoin="round"/>
<path d="M31.4114 33.8428L28.9454 34.7162" stroke="#565656" stroke-width="1.7" stroke-linecap="round" stroke-linejoin="round"/>
<path d="M30.97 38.0774L28.5565 36.812" stroke="#565656" stroke-width="1.7" stroke-linecap="round" stroke-linejoin="round"/>
<path d="M21.216 43.293C22.827 44.2034 24.3764 43.6572 24.3764 43.6572" stroke="#FCB21D" stroke-width="2" stroke-linecap="round" stroke-linejoin="round"/>
<path d="M30.9791 30.8826C31.937 30.8826 32.7136 30.106 32.7136 29.1481C32.7136 28.1901 31.937 27.4136 30.9791 27.4136C30.0211 27.4136 29.2446 28.1901 29.2446 29.1481C29.2446 30.106 30.0211 30.8826 30.9791 30.8826Z" fill="#565656"/>
<path d="M17.5963 29.6824C18.5542 29.6824 19.3308 28.9058 19.3308 27.9479C19.3308 26.9899 18.5542 26.2134 17.5963 26.2134C16.6384 26.2134 15.8618 26.9899 15.8618 27.9479C15.8618 28.9058 16.6384 29.6824 17.5963 29.6824Z" fill="#565656"/>
<path d="M23.8865 31.2562C20.0348 31.037 17.896 32.7561 18.0225 34.8733C18.0318 37.151 21.1983 38.4751 23.2322 36.1295C24.905 38.9997 28.3802 38.2467 28.9234 35.9782C29.3863 34.0431 27.8185 31.7315 23.8865 31.2562Z" fill="white" stroke="#565656" stroke-width="1.7" stroke-linecap="round" stroke-linejoin="round"/>
<path d="M9.38305 50.8454C9.38305 50.8454 4.54371 59.0365 10.5065 61.9623C16.0248 64.6721 18.9136 56.7804 19.3395 54.2403C19.7654 51.7003 19.3611 48.5893 16.3705 47.4689C13.3829 46.3486 11.1299 48.1171 9.38305 50.8454Z" fill="#FFD677" stroke="#FCB21D" stroke-width="2" stroke-linecap="round" stroke-linejoin="round"/>
<path d="M35.3043 52.0765C35.3043 52.0765 34.1099 52.3142 32.9525 50.2217C31.7951 48.1292 29.4681 46.2804 26.1163 47.2989C24.0053 47.9409 21.6998 51.1846 22.9745 55.0178C23.8479 57.6412 27.1996 62.3262 32.8908 62.3262C32.8908 62.3262 36.1715 62.4157 39.0665 59.9065" fill="#FFD677"/>
<path d="M35.3043 52.0765C35.3043 52.0765 34.1099 52.3142 32.9525 50.2217C31.7951 48.1292 29.4681 46.2804 26.1163 47.2989C24.0053 47.9409 21.6998 51.1846 22.9745 55.0178C23.8479 57.6412 27.1996 62.3262 32.8908 62.3262C32.8908 62.3262 36.1715 62.4157 39.0665 59.9065" stroke="#FCB21D" stroke-width="2" stroke-linecap="round" stroke-linejoin="round"/>
<path d="M94.0135 70.5022C93.5166 69.0486 91.134 68.0949 89.2699 68.135C86.3996 68.1936 83.9892 69.3418 81.9245 71.7738C80.3227 73.6595 79.2147 76.9927 75.8444 75.9773C74.7303 75.6409 73.4957 75.9526 73.1069 76.9989C72.4217 78.8445 74.8506 79.9957 76.1716 80.1871C79.3566 80.6469 81.0418 79.7272 82.9615 77.573C83.7454 76.6903 85.6959 73.4157 88.1094 73.3632C89.6279 73.3293 91.3809 74.1749 92.7975 73.4682C93.9426 72.8972 94.4055 71.6503 94.0135 70.5053V70.5022Z" fill="#FFADDC" stroke="#FF84CC" stroke-width="2" stroke-linecap="round" stroke-linejoin="round"/>
<path d="M54.8731 71.4685C54.8731 71.4685 54.728 81.999 61.0827 85.002H74.0484V81.4774C74.0484 81.4774 74.4527 78.2152 73.8447 75.6905C73.2367 73.1659 70.104 66.2495 70.104 66.2495H55.1354L54.8731 71.4716V71.4685Z" fill="white"/>
<path d="M54.7059 71.4932C54.7059 71.4932 54.2244 80.0021 59.1132 84.3137C59.1132 84.3137 58.0052 85.4557 58.6595 86.7889C59.6718 88.8506 63.0112 88.7055 63.7519 88.6438C66.4864 88.4123 67.2363 86.6994 67.2363 86.6994" fill="white"/>
<path d="M54.7059 71.4932C54.7059 71.4932 54.2244 80.0021 59.1132 84.3137C59.1132 84.3137 58.0052 85.4557 58.6595 86.7889C59.6718 88.8506 63.0112 88.7055 63.7519 88.6438C66.4864 88.4123 67.2363 86.6994 67.2363 86.6994" stroke="#B4B4B5" stroke-width="2" stroke-linecap="round" stroke-linejoin="round"/>
<path d="M63.0011 80.9064L64.3375 80.999C64.3375 80.999 64.9671 82.931 65.9207 84.3013C66.2572 84.2581 64.2788 86.9339 67.2386 88.329C69.291 89.2981 72.6705 89.0789 74.5254 87.9247C76.2599 86.8444 76.9574 85.4494 76.0932 83.2088C75.8247 82.5082 74.8618 80.4095 75.155 77.7305C75.5038 74.53 73.1366 70.1845 71.7199 68.1074" fill="white"/>
<path d="M63.0011 80.9064L64.3375 80.999C64.3375 80.999 64.9671 82.931 65.9207 84.3013C66.2572 84.2581 64.2788 86.9339 67.2386 88.329C69.291 89.2981 72.6705 89.0789 74.5254 87.9246C76.2599 86.8444 76.9574 85.4494 76.0932 83.2088C75.8247 82.5082 74.8618 80.4095 75.155 77.7305C75.5038 74.53 73.1366 70.1845 71.7199 68.1074" stroke="#B4B4B5" stroke-width="2" stroke-linecap="round" stroke-linejoin="round"/>
<path d="M66.9863 34.8614C73.0478 35.957 78.634 38.7779 80.9426 41.2593C89.3158 49.8362 87.5843 61.4129 80.7019 66.1103C77.2514 68.4652 71.804 70.2737 62.1932 69.9559C52.5824 69.638 43.9469 67.5979 40.1199 61.1043C37.1015 55.981 37.8299 48.4628 42.2711 42.7407C49.8973 32.9108 64.8907 34.4787 66.9863 34.8583V34.8614Z" fill="white"/>
<path d="M83.4427 44.327C83.8995 36.5402 82.3224 28.5436 80.7206 24.7968C79.6558 22.3092 77.4429 18.7877 73.3937 22.9419C69.4957 26.9418 66.7735 33.8119 66.3939 34.7964C65.2211 34.6267 62.641 34.3767 59.1843 34.6699C59.104 34.3829 56.9652 26.7751 53.4283 22.2938C49.9562 17.8958 47.9501 21.2784 46.8267 23.695C45.2342 27.1208 43.441 34.3057 43.2034 41.6419C42.8824 41.9906 42.5737 42.3579 42.2744 42.7406C37.8332 48.4626 37.1017 55.9809 40.1232 61.1042C43.9502 67.5978 52.5858 69.6378 62.1965 69.9557C71.8073 70.2705 77.2578 68.465 80.7052 66.1071C86.7945 61.9498 88.85 52.41 83.4458 44.327H83.4427Z" fill="white"/>
<path d="M59.1497 58.8543C59.1466 59.2308 58.838 59.4253 58.4615 59.4191C58.0849 59.4129 57.7825 59.2154 57.7886 58.8389C57.7948 58.4623 58.1004 58.2679 58.4769 58.2741C58.8534 58.2802 59.1559 58.4778 59.1497 58.8543Z" fill="#565656"/>
<path d="M56.5145 62.2832C56.5145 62.2832 56.888 65.1627 58.7645 65.1812C60.6409 65.1627 60.3354 62.2832 60.3354 62.2832C60.3354 62.2832 58.9867 61.9066 58.4527 61.1196C58.4527 61.1196 57.6534 62.1597 56.5114 62.2832H56.5145Z" fill="#E45D82"/>
<path d="M55.5692 61.4098C56.1001 61.9345 57.6556 62.1938 58.4148 60.7617H58.4364C59.1957 62.1938 60.7543 61.9314 61.282 61.4098" stroke="#565656" stroke-width="1.7" stroke-linecap="round" stroke-linejoin="round"/>
<path d="M56.6089 62.1904C56.6089 62.1904 56.6922 65.3107 58.6613 65.3292C60.6304 65.3076 60.615 62.1904 60.615 62.1904" stroke="#565656" stroke-width="1.7" stroke-linecap="round" stroke-linejoin="round"/>
<path d="M50.3016 58.6225C50.3786 57.0357 48.2714 55.6441 45.5951 55.5141C42.9187 55.3841 40.6867 56.5651 40.6096 58.1518C40.5326 59.7386 42.6397 61.1303 45.3161 61.2602C47.9924 61.3902 50.2245 60.2092 50.3016 58.6225Z" fill="url(#paint0_radial_590_6547)"/>
<path d="M77.2699 59.9294C77.347 58.3426 75.0383 56.9412 72.1134 56.7991C69.1885 56.6571 66.7549 57.8283 66.6778 59.415C66.6008 61.0018 68.9095 62.4032 71.8344 62.5453C74.7593 62.6873 77.1929 61.5161 77.2699 59.9294Z" fill="url(#paint1_radial_590_6547)"/>
<path d="M72.5446 56.5488C72.9674 56.376 73.4828 56.0581 73.7297 55.4717" stroke="#565656" stroke-width="1.7" stroke-linecap="round" stroke-linejoin="round"/>
<path d="M64.6274 57.8386C64.6274 57.8386 66.1489 56.4992 69.0624 56.2338C72.0531 55.9622 73.624 57.2183 73.624 57.2183" stroke="#565656" stroke-width="1.7" stroke-linecap="round" stroke-linejoin="round"/>
<path d="M45.2142 55.2216C44.8438 55.0117 44.4056 54.6445 44.2358 54.0396" stroke="#565656" stroke-width="1.7" stroke-linecap="round" stroke-linejoin="round"/>
<path d="M52.2996 57.2429C52.2996 57.2429 51.0404 55.7676 48.4139 55.2337C45.7165 54.6874 44.1702 55.7923 44.1702 55.7923" stroke="#565656" stroke-width="1.7" stroke-linecap="round" stroke-linejoin="round"/>
<path d="M39.2374 48.3887C37.7375 52.8484 38.0276 57.555 40.1232 61.1074C43.9502 67.601 52.5857 69.641 62.1965 69.9589C71.8073 70.2737 77.2577 68.4682 80.7051 66.1103C85.4087 62.8974 87.708 56.4748 86.0167 49.9936" stroke="#B4B4B5" stroke-width="2" stroke-linecap="round" stroke-linejoin="round"/>
<path d="M51.1472 68.5547C51.1472 68.5547 50.1411 75.2057 55.0792 75.5112C59.65 75.7951 59.397 69.8633 58.968 68.0886C58.539 66.3171 57.3785 64.3943 55.002 64.4653C52.6256 64.5394 51.5793 66.2986 51.1503 68.5516L51.1472 68.5547Z" fill="white" stroke="#B4B4B5" stroke-width="2" stroke-linecap="round" stroke-linejoin="round"/>
<path d="M69.7696 70.2551C69.7696 70.2551 68.032 69.2367 67.0938 66.9404C66.4117 65.2769 64.0877 63.6165 61.4119 64.6843C59.9181 65.28 58.4058 67.2861 59.4644 70.2459C60.1897 72.2705 62.4335 75.0081 67.0784 75.8969" fill="white"/>
<path d="M69.7696 70.2551C69.7696 70.2551 68.032 69.2367 67.0938 66.9404C66.4117 65.2769 64.0877 63.6165 61.4119 64.6843C59.9181 65.28 58.4058 67.2861 59.4644 70.2459C60.1897 72.2705 62.4335 75.0081 67.0784 75.8969" stroke="#B4B4B5" stroke-width="2" stroke-linecap="round" stroke-linejoin="round"/>
<path d="M85.9883 50.429C85.4791 48.6574 84.5872 46.0371 83.4452 44.3304C83.902 36.5436 82.3249 28.547 80.7231 24.8002C79.6583 22.3126 77.4454 18.7911 73.3962 22.9453C69.4982 26.9452 66.776 33.8153 66.3964 34.7999C65.2236 34.6301 62.6435 34.3801 59.1868 34.6733C59.1065 34.3863 56.9677 26.7785 53.4308 22.2972C49.9587 17.8992 47.9526 21.2818 46.8292 23.6984C45.2366 27.1242 43.4435 34.3091 43.2058 41.6453C42.8849 41.9941 42.5762 42.3613 42.2769 42.744C40.993 44.3983 39.9652 46.9198 39.3047 48.7747C52.471 50.5277 59.8781 41.3398 59.8781 41.3398C59.8781 41.3398 63.2978 50.0277 85.9914 50.429H85.9883Z" fill="#FFADDC"/>
<path d="M71.6158 37.6823C72.6651 38.389 73.7052 38.0619 74.486 37.4014C74.9305 38.3211 75.7452 39.0433 76.9921 38.8273C77.881 38.673 79.2389 37.781 79.384 34.383C79.5167 31.309 78.7729 26.5746 76.8934 26.1734C75.0138 25.7722 72.3935 29.7875 71.2516 32.6485C69.9924 35.8089 70.8627 37.1761 71.6127 37.6792L71.6158 37.6823Z" fill="#FF84CC"/>
<path d="M54.3875 36.639C53.3814 37.2686 52.4462 36.8704 51.7672 36.1575C51.3043 37.0433 50.5142 37.7068 49.3815 37.4044C48.5729 37.1883 47.3847 36.2038 47.4526 32.8058C47.5174 29.7318 48.4865 25.0591 50.2364 24.7906C51.9833 24.5221 54.1499 28.7133 55.0233 31.6453C55.9893 34.8859 55.1066 36.1884 54.3875 36.639Z" fill="#FF84CC"/>
<path d="M85.9607 49.7901C85.4576 47.9476 84.6305 46.105 83.4454 44.3304C83.9021 36.5436 82.325 28.547 80.7232 24.8002C79.6585 22.3126 77.4456 18.7911 73.3963 22.9453C69.4983 26.9452 66.7762 33.8153 66.3966 34.7999C65.2238 34.6301 62.6436 34.3801 59.1869 34.6733C59.1067 34.3863 56.9679 26.7785 53.431 22.2972C49.9589 17.8992 47.9527 21.2818 46.8293 23.6984C45.2368 27.1242 43.4436 34.3091 43.206 41.6453C42.885 41.9941 42.5764 42.3613 42.277 42.744C40.9159 44.4971 39.9036 46.4198 39.2401 48.3889" stroke="#FF84CC" stroke-width="2" stroke-linecap="round" stroke-linejoin="round"/>
<defs>
<radialGradient id="paint0_radial_590_6547" cx="0" cy="0" r="1" gradientUnits="userSpaceOnUse" gradientTransform="translate(45.237 58.5279) rotate(2.78) scale(4.8307 2.91965)">
<stop offset="0.21" stop-color="#FFBDC3"/>
<stop offset="0.32" stop-color="#FFBDC3"/>
<stop offset="1" stop-color="#FFBDC3" stop-opacity="0"/>
</radialGradient>
<radialGradient id="paint1_radial_590_6547" cx="0" cy="0" r="1" gradientUnits="userSpaceOnUse" gradientTransform="translate(71.9664 59.8263) rotate(2.78) scale(5.30846 2.91965)">
<stop offset="0.21" stop-color="#FFBDC3"/>
<stop offset="0.32" stop-color="#FFBDC3"/>
<stop offset="1" stop-color="#FFBDC3" stop-opacity="0"/>
</radialGradient>
</defs>
</svg>
