<svg width="82" height="96" viewBox="0 0 82 96" fill="none" xmlns="http://www.w3.org/2000/svg">
<path d="M45.1221 74.8718C53.4494 74.8718 60.2 69.7205 60.2 63.366C60.2 57.0116 53.4494 51.8603 45.1221 51.8603C36.7948 51.8603 30.0442 57.0116 30.0442 63.366C30.0442 69.7205 36.7948 74.8718 45.1221 74.8718Z" fill="#FFD677" stroke="#FCB21D" stroke-width="1.60077" stroke-linecap="round" stroke-linejoin="round"/>
<path d="M69.4885 28.8096C66.588 27.2132 62.3321 27.8849 59.3623 29.2584C56.7479 30.4692 52.9769 33.0896 53.4347 36.0805C53.8926 39.0714 58.278 40.4388 61.1364 40.8093C64.3802 41.2279 68.6422 40.5894 70.9313 38.1979C73.6662 35.3365 72.9613 30.7192 69.4885 28.8096Z" fill="#95C8FF" stroke="#70AFF5" stroke-width="2" stroke-miterlimit="10"/>
<path d="M50.7786 15.6866C50.7786 15.6866 58.8928 18.2226 60.7904 27.5628C61.8416 32.7433 59.4229 38.1769 56.5345 41.3335C48.0799 50.5712 29.6315 50.9326 25.9298 36.933C22.207 22.852 37.9958 11.4156 50.7786 15.6866Z" fill="white" stroke="#B4B4B5" stroke-width="2" stroke-linecap="round" stroke-linejoin="round"/>
<path d="M42.7452 66.5315C37.3839 66.414 36.8177 65.9833 31.9021 65.0165C24.4114 63.5406 16.8634 61.9864 16.8634 61.9864C16.8634 61.9864 15.7429 65.3418 15.2761 67.3237C15.2761 71.6037 15.9839 83.4859 17.8784 86.7328C19.9235 90.2327 36.9261 94.0609 42.2091 94.073C47.8144 94.088 63.1875 90.314 65.329 87.4617C66.9404 85.3202 68.3831 80.242 70.4373 67.4261L65.6513 61.8148C65.6513 61.8148 48.1035 66.646 42.7422 66.5315H42.7452Z" fill="#C2986D" stroke="#917454" stroke-width="2" stroke-linecap="round" stroke-linejoin="round"/>
<path d="M44.5045 69.8478C45.5587 71.6037 48.9412 77.6247 52.0977 78.8837C55.8356 80.236 65.4166 77.3717 65.4166 77.3717C65.4166 77.3717 71.6936 75.7181 73.3712 74.2603C74.2718 73.2874 74.7688 72.426 72.2719 69.0797C71.3592 67.9351 68.6515 64.5045 67.0672 63.7003" fill="#C2986D"/>
<path d="M44.5045 69.8478C45.5587 71.6037 48.9412 77.6247 52.0977 78.8837C55.8356 80.236 65.4166 77.3717 65.4166 77.3717C65.4166 77.3717 71.6936 75.7181 73.3712 74.2603C74.2718 73.2874 74.7688 72.426 72.2719 69.0797C71.3592 67.9351 68.6515 64.5045 67.0672 63.7003" stroke="#917454" stroke-width="2" stroke-linecap="round" stroke-linejoin="round"/>
<path d="M39.6493 69.8117C38.6161 71.3839 35.2698 78.0374 32.3181 79.3295C28.8152 80.712 19.5052 77.5585 19.5052 77.5585C19.5052 77.5585 11.2976 75.4471 9.96929 72.7905C8.8398 70.5346 12.7855 66.5286 16.6348 63.0317" fill="#C2986D"/>
<path d="M39.6492 69.8117C38.6161 71.3839 35.2698 78.0374 32.3181 79.3295C28.8152 80.712 19.5052 77.5585 19.5052 77.5585C19.5052 77.5585 11.2976 75.4471 9.96929 72.7905C8.8398 70.5346 12.7855 66.5286 16.6348 63.0317" stroke="#917454" stroke-width="2" stroke-linecap="round" stroke-linejoin="round"/>
<path d="M42.2936 77.3262C42.1762 81.4978 42.0617 87.3561 42.1792 90.2867" stroke="#917454" stroke-width="2" stroke-linecap="round" stroke-linejoin="round"/>
<path d="M62.7698 84.9074C62.8602 84.7297 62.9897 84.4827 63.0469 84.3773L62.7698 84.9074Z" fill="#C2986D"/>
<path d="M62.7698 84.9074C62.8602 84.7297 62.9897 84.4827 63.0469 84.3773" stroke="#917454" stroke-width="1.7" stroke-linecap="round" stroke-linejoin="round"/>
<path d="M30.9775 75.9166C30.7456 76.251 30.4173 76.7148 30.2667 76.9076L30.9775 75.9166Z" fill="#C2986D"/>
<path d="M30.9775 75.9166C30.7456 76.251 30.4173 76.7148 30.2667 76.9076" stroke="#917454" stroke-width="1.7" stroke-linecap="round" stroke-linejoin="round"/>
<path d="M29.4417 74.5223C29.3333 74.6488 29.1767 74.8265 29.1044 74.8988L29.4417 74.5223Z" fill="#C2986D"/>
<path d="M29.4417 74.5223C29.3333 74.6488 29.1767 74.8265 29.1044 74.8988" stroke="#917454" stroke-width="1.7" stroke-linecap="round" stroke-linejoin="round"/>
<path d="M21.939 7.04811C24.2793 6.43668 26.8124 6.10537 28.7882 5.99693C31.2701 2.64461 35.5622 0.225999 38.3422 2.22595C40.9355 4.09337 41.9084 8.24085 42.1162 9.29805C51.1642 15.3792 51.4654 25.8037 45.9414 31.0836C43.1734 33.7312 38.9566 36.1648 30.1195 37.5202C21.2854 38.8756 16.5325 37.8154 13.0959 36.1227C6.24062 32.7402 3.40334 22.7073 10.2134 14.1925C10.0959 13.1202 9.77968 8.87337 11.6953 6.31319C13.7464 3.5723 18.5656 4.59336 21.939 7.04811Z" fill="white"/>
<path d="M47.7968 15.3461C50.863 20.9092 49.8902 27.3097 45.9415 31.0807C43.1735 33.7282 38.9567 36.1619 30.1196 37.5172C21.2855 38.8726 16.5326 37.8124 13.0959 36.1197C8.2858 33.7463 5.45455 28.0988 6.54488 21.9996" stroke="#B4B4B5" stroke-width="2" stroke-linecap="round" stroke-linejoin="round"/>
<path d="M29.2462 26.0297C29.3155 26.3911 29.0595 26.6351 28.698 26.7014C28.3366 26.7676 28.0083 26.6351 27.942 26.2767C27.8758 25.9183 28.1288 25.6713 28.4902 25.605C28.8516 25.5387 29.1799 25.6713 29.2462 26.0297Z" fill="#565656"/>
<path d="M26.7052 28.2799C26.7052 28.2799 27.2172 29.3974 29.1359 29.0902C30.7744 28.8281 30.9852 27.5932 30.9852 27.5932" stroke="#565656" stroke-width="1.7" stroke-linecap="round" stroke-linejoin="round"/>
<path d="M14.1024 25.7046C14.1024 25.7046 15.4488 26.9998 18.6113 26.4576C21.7739 25.9125 22.551 24.539 22.551 24.539" stroke="#565656" stroke-width="1.7" stroke-linecap="round" stroke-linejoin="round"/>
<path d="M34.1771 22.798C34.1771 22.798 35.5235 24.0931 38.686 23.551C41.8486 23.0058 42.6257 21.6323 42.6257 21.6323" stroke="#565656" stroke-width="1.7" stroke-linecap="round" stroke-linejoin="round"/>
<path d="M42.1166 9.298C41.9058 8.2408 40.9359 4.09332 38.3426 2.2259C35.5626 0.228959 31.2735 2.64757 28.7887 5.99688C26.8128 6.10531 24.2797 6.43663 21.9394 7.04806C18.566 4.59632 13.7469 3.57526 11.6957 6.31314C9.78011 8.8703 10.0994 13.1202 10.2138 14.1925C8.27111 16.6231 7.17475 19.8188 6.67175 22.3097C8.61749 22.0507 14.9637 20.8188 16.0872 19.861C17.0721 19.0206 18.0058 16.6442 18.5299 15.7135C18.8552 18.6231 18.9094 19.3881 20.0539 19.5628C22.9936 20.0086 32.0024 18.5899 34.3367 17.3701C35.3608 16.834 35.1981 16.1171 34.6349 13.2437C35.415 13.9756 37.0174 15.9605 38.2101 16.4665C39.5715 17.0448 45.6949 16.081 47.9478 15.593C46.7219 13.3702 44.6979 11.0359 42.1136 9.298H42.1166Z" fill="#95C8FF"/>
<path d="M6.54822 22.0026C7.01206 19.4093 8.18372 16.7347 10.2168 14.1926C10.0993 13.1203 9.78307 8.87343 11.6987 6.31325C13.7498 3.57236 18.569 4.59342 21.9424 7.04817C24.2827 6.43674 26.8158 6.10543 28.7916 5.997C31.2735 2.64467 35.5655 0.22606 38.3456 2.22601C40.9389 4.09343 41.9118 8.24091 42.1196 9.29812C44.7039 11.036 46.4568 12.9396 47.6827 15.1624" stroke="#70AFF5" stroke-width="2" stroke-linecap="round" stroke-linejoin="round"/>
<path d="M32.8856 6.07534C32.6356 7.51205 33.9127 8.53612 35.2259 8.04517C36.0753 9.16261 37.7018 8.97888 38.256 7.63253C38.9487 5.95185 37.6897 4.06936 36.4789 3.71998C35.2681 3.37059 33.1959 4.28623 32.8856 6.07835V6.07534Z" fill="#70AFF5"/>
<path d="M18.0569 8.34932C18.7255 9.64447 17.8159 11.0029 16.4123 10.9306C15.9365 12.2528 14.3311 12.5631 13.3974 11.4456C12.2317 10.0511 12.8703 7.87644 13.9214 7.17766C14.9726 6.47888 17.2226 6.7349 18.0569 8.34932Z" fill="#70AFF5"/>
<path d="M78.9277 46.3484C80.4788 39.1619 79.9578 31.2344 78.8945 27.5387C78.2319 25.2315 76.8946 21.9244 72.9098 25.1713C68.8044 28.5145 65.5244 34.8999 65.4672 35.0114C63.163 34.3487 60.0095 33.8277 57.2325 33.7554C57.2114 33.6319 55.9825 26.5568 53.0609 22.1442C50.2236 17.8552 47.9616 20.6141 46.6424 22.6201C44.528 25.8309 41.6696 33.2433 41.007 40.5654C36.1667 45.7521 35.6276 53.9717 40.8172 58.8571C43.6063 61.4806 47.802 63.9534 56.6361 65.2997C65.4702 66.6461 70.211 65.5377 73.6567 63.863C80.0692 60.7487 82.0029 52.7398 78.9277 46.3484Z" fill="white"/>
<path d="M38.4378 44.3937C36.209 49.2339 36.7782 55.0561 40.8173 58.8572C43.6064 61.4806 47.8021 63.9534 56.6362 65.2998C65.4703 66.6461 70.2111 65.5377 73.6568 63.8631C78.6928 61.4173 80.9639 55.9536 80.2199 50.6254" stroke="#B4B4B5" stroke-width="2" stroke-linecap="round" stroke-linejoin="round"/>
<path d="M80.2193 50.6405C80.0175 49.1767 79.5867 47.7249 78.9241 46.3484C80.4753 39.1619 79.9542 31.2344 78.891 27.5387C78.2283 25.2315 76.891 21.9244 72.9062 25.1713C68.8009 28.5145 65.5208 34.8999 65.4636 35.0114C63.1595 34.3487 60.0059 33.8277 57.2289 33.7554C57.2078 33.6319 55.9789 26.5568 53.0573 22.1442C50.22 17.8552 47.958 20.6141 46.6388 22.6201C44.5244 25.8309 41.666 33.2433 41.0034 40.5654C39.9372 41.707 39.0787 42.9991 38.4462 44.3665C40.2082 44.8063 43.9913 45.2069 47.708 45.1557C52.7712 45.0864 60.539 44.0292 62.6745 40.457C62.9426 42.207 67.9395 49.3544 80.2193 50.6375V50.6405Z" fill="#FFADDC"/>
<path d="M80.1747 50.3272C79.9548 48.9718 79.5422 47.6285 78.9277 46.3484C80.4789 39.1619 79.9578 31.2344 78.8946 27.5387C78.232 25.2315 76.8946 21.9243 72.9098 25.1713C68.8045 28.5145 65.5245 34.8999 65.4672 35.0114C63.1631 34.3487 60.0095 33.8277 57.2325 33.7554C57.2114 33.6319 55.9825 26.5568 53.0609 22.1442C50.2236 17.8552 47.9617 20.6141 46.6424 22.6201C44.528 25.8309 41.6696 33.2433 41.007 40.5654C39.9348 41.716 39.0733 43.0142 38.4378 44.3937" stroke="#FF84CC" stroke-width="2" stroke-linecap="round" stroke-linejoin="round"/>
<path d="M70.0299 38.2976C70.4456 38.7975 71.816 38.8668 72.563 38.3337C72.8522 39.2042 73.6353 40.1077 74.7407 40.1288C75.9575 40.1529 76.7798 39.3337 76.9846 36.2434C77.1894 33.1531 76.581 28.849 75.3943 28.5749C73.7678 28.1984 71.3914 31.5116 70.1083 34.0085C68.6896 36.7675 69.7107 37.912 70.0299 38.2976Z" fill="#FF84CC"/>
<path d="M52.524 36.3758C51.4306 36.7673 50.6324 36.1649 50.0933 35.3909C49.0993 38.0113 47.3825 37.6137 46.503 36.8968C45.8585 36.3728 45.3193 34.6138 45.9759 31.5205C46.5663 28.7193 48.3223 24.6291 50.0752 24.7044C51.8312 24.7797 53.1986 29.0115 53.5721 31.8488C53.9486 34.6981 53.301 36.0957 52.524 36.3758Z" fill="#FF84CC"/>
<path d="M60.7577 54.9203C60.7155 55.2848 60.3962 55.4414 60.0318 55.3962C59.6673 55.351 59.3962 55.1251 59.4384 54.7637C59.4806 54.4023 59.7998 54.2426 60.1643 54.2878C60.5287 54.333 60.7998 54.5589 60.7577 54.9203Z" fill="#565656"/>
<path d="M46.6953 51.2277C46.6953 51.2277 51.7162 51.0651 55.5173 51.6825" stroke="#565656" stroke-width="1.7" stroke-linecap="round" stroke-linejoin="round"/>
<path d="M65.2456 53.1673C65.2456 53.1673 69.9413 53.7938 74.2755 55.2516" stroke="#565656" stroke-width="1.7" stroke-linecap="round" stroke-linejoin="round"/>
<path d="M55.924 56.08C56.198 57.8932 58.9962 58.36 59.8124 56.7546C60.1528 58.5196 62.975 58.8449 63.737 57.1763" stroke="#565656" stroke-width="1.7" stroke-linecap="round" stroke-linejoin="round"/>
<path d="M70.9511 56.8332L70.7132 58.4416" stroke="#FF9CAE" stroke-width="1.7" stroke-linecap="round" stroke-linejoin="round"/>
<path d="M73.9927 57.2821L74.4023 58.8212" stroke="#FF9CAE" stroke-width="1.7" stroke-linecap="round" stroke-linejoin="round"/>
<path d="M67.9087 56.3815L66.9509 57.8875" stroke="#FF9CAE" stroke-width="1.7" stroke-linecap="round" stroke-linejoin="round"/>
<path d="M48.9471 53.6163L48.7092 55.2247" stroke="#FF9CAE" stroke-width="1.7" stroke-linecap="round" stroke-linejoin="round"/>
<path d="M45.9054 53.1676L44.9506 54.6706" stroke="#FF9CAE" stroke-width="1.7" stroke-linecap="round" stroke-linejoin="round"/>
<path d="M51.9896 54.0652L52.4715 55.782" stroke="#FF9CAE" stroke-width="1.7" stroke-linecap="round" stroke-linejoin="round"/>
<path d="M19.5506 69.441C32.9599 71.4199 41.1886 65.9953 42.3031 55.098C42.8151 50.0801 41.3935 45.538 38.6285 41.8424C38.8423 39.8755 38.3694 38.49 37.502 37.7431C36.5171 36.8937 34.8816 36.4208 32.6587 37.1256C30.2974 35.9389 27.6559 35.0534 24.6951 34.6166C21.7343 34.1799 19.132 34.2221 16.5477 34.5835C14.5929 33.204 13.0267 33.204 11.7075 33.8155C10.6382 34.3094 9.78884 35.6467 9.38825 37.5142C5.72268 40.1436 2.93962 44.1586 2.02097 49.1193C0.0541536 59.7576 5.67449 67.3929 19.5476 69.441" fill="#FFD677"/>
<path d="M19.5506 69.441C32.9599 71.4199 41.1886 65.9953 42.3031 55.098C42.8151 50.0801 41.3935 45.538 38.6285 41.8424C38.8423 39.8755 38.3694 38.49 37.502 37.7431C36.5171 36.8937 34.8816 36.4208 32.6587 37.1256C30.2974 35.9389 27.6559 35.0534 24.6951 34.6166C21.7343 34.1799 19.132 34.2221 16.5477 34.5835C14.5929 33.204 13.0267 33.204 11.7075 33.8155C10.6382 34.3094 9.78884 35.6467 9.38825 37.5142C5.72268 40.1436 2.93962 44.1586 2.02097 49.1193C0.0541535 59.7576 5.67449 67.3929 19.5476 69.441" stroke="#FCB21D" stroke-width="2" stroke-linecap="round" stroke-linejoin="round"/>
<path d="M10.777 58.2694C13.7167 58.5555 15.6052 56.8327 15.9365 54.137C16.2317 51.7575 15.3522 49.5407 12.0541 48.8992C9.18971 48.342 6.84639 49.9443 6.43375 52.7455C6.05424 55.3237 7.90962 57.9893 10.777 58.2694Z" fill="#FF9470"/>
<path d="M28.5657 60.5799C25.2827 60.095 23.7737 57.7427 24.2315 55.1042C24.6351 52.7729 26.135 51.038 29.5747 51.288C32.5174 51.5019 34.3909 53.791 33.9812 56.5559C33.6047 59.1011 31.7042 61.0438 28.5657 60.583" fill="#FF9470"/>
<path d="M16.422 47.2249C16.5636 47.8273 16.2082 48.2429 15.1961 48.5622C14.1359 48.8935 13.6028 48.6495 13.4161 48.1405C13.1872 47.52 13.4221 47.0532 14.666 46.7098C15.7353 46.4146 16.2835 46.6225 16.422 47.2249Z" fill="#565656"/>
<path d="M25.5278 48.5019C25.2025 48.9808 25.4314 49.4928 26.3471 50.1223C27.2627 50.7488 27.7838 50.7518 28.1663 50.3332C28.6362 49.8211 28.3772 49.2007 27.4615 48.5742C26.5459 47.9477 25.8712 47.9899 25.5248 48.5019H25.5278Z" fill="#565656"/>
<path d="M20.9474 56.8777L19.4264 55.7723L17.3993 56.188C17.3993 56.188 16.5379 58.8265 18.7969 59.1156C20.592 59.3445 20.9474 56.8777 20.9474 56.8777Z" fill="#D37A6C" stroke="#565656" stroke-width="1.7" stroke-linecap="round" stroke-linejoin="round"/>
<path d="M20.0511 51.0256C16.7711 50.5135 14.5211 51.7725 14.5844 54.1128C14.6446 56.2965 17.3072 57.2302 19.2921 55.7875C20.786 57.9862 23.8251 57.676 24.5691 55.5465C25.2979 53.4653 23.4878 51.5587 20.0511 51.0225V51.0256Z" fill="white" stroke="#565656" stroke-width="1.7" stroke-linecap="round" stroke-linejoin="round"/>
<path d="M13.0502 51.3294L14.9869 52.4197" stroke="#565656" stroke-width="1.7" stroke-linecap="round" stroke-linejoin="round"/>
<path d="M12.6743 55.1818L14.6411 54.5673" stroke="#565656" stroke-width="1.7" stroke-linecap="round" stroke-linejoin="round"/>
<path d="M27.0684 53.3386L24.8666 53.7813" stroke="#565656" stroke-width="1.7" stroke-linecap="round" stroke-linejoin="round"/>
<path d="M26.5077 57.1395L24.8421 56.1275" stroke="#565656" stroke-width="1.7" stroke-linecap="round" stroke-linejoin="round"/>
</svg>
