<svg width="97" height="97" viewBox="0 0 97 97" fill="none" xmlns="http://www.w3.org/2000/svg">
<path d="M52.6929 22.6204C51.9944 19.7166 57.8855 14.2428 62.4015 18.5085C65.0198 20.9818 63.7414 26.5609 59.3 26.5609" fill="#FFF174"/>
<path d="M52.6929 22.6204C51.9944 19.7166 57.8855 14.2428 62.4015 18.5085C65.0198 20.9818 63.7414 26.5609 59.3 26.5609" stroke="#FFC23C" stroke-width="2" stroke-linecap="round" stroke-linejoin="round"/>
<path d="M59.2876 20.5688C56.252 22.6512 56.6386 23.0817 55.4964 24.6676L59.2876 20.5688Z" fill="#FFF174"/>
<path d="M59.2876 20.5688C56.252 22.6512 56.6386 23.0817 55.4964 24.6676" stroke="#FFC23C" stroke-width="2" stroke-linecap="round" stroke-linejoin="round"/>
<path d="M69.17 34.9165C72.8251 31.6656 78.0001 34.3146 78.6151 37.8071C79.4322 42.4374 76.1682 44.4714 70.9976 44.177" fill="#FFF174"/>
<path d="M69.17 34.9165C72.8251 31.6656 78.0001 34.3146 78.6151 37.8071C79.4322 42.4374 76.1682 44.4714 70.9976 44.177" stroke="#FFC23C" stroke-width="2" stroke-linecap="round" stroke-linejoin="round"/>
<path d="M75.0702 38.6943C74.0993 38.1364 73.6205 38.2902 72.4475 38.7383L75.0702 38.6943Z" fill="#FFF174"/>
<path d="M75.0702 38.6943C74.0993 38.1364 73.6205 38.2902 72.4475 38.7383" stroke="#FFC23C" stroke-width="2" stroke-linecap="round" stroke-linejoin="round"/>
<path d="M71.6581 63.5987C73.1342 65.0572 75.9282 65.4262 77.5932 62.887C79.2581 60.3434 78.4498 55.0542 73.0683 55.0542" fill="#FFF174"/>
<path d="M71.6581 63.5987C73.1342 65.0572 75.9282 65.4262 77.5932 62.887C79.2581 60.3434 78.4498 55.0542 73.0683 55.0542" stroke="#FFC23C" stroke-width="2" stroke-linecap="round" stroke-linejoin="round"/>
<path d="M73.0728 59.0962C73.8284 59.619 74.6543 59.7376 75.3836 60.6074L73.0728 59.0962Z" fill="#FFF174"/>
<path d="M73.0728 59.0962C73.8284 59.619 74.6543 59.7376 75.3836 60.6074" stroke="#FFC23C" stroke-width="2" stroke-linecap="round" stroke-linejoin="round"/>
<path d="M58.6213 81.7902C59.9831 82.6864 64.5651 84.035 67.3415 81.1224C70.5836 77.7178 67.1482 74.2429 64.1477 73.4697" fill="#FFF174"/>
<path d="M58.6213 81.7902C59.9831 82.6864 64.5651 84.035 67.3415 81.1224C70.5836 77.7178 67.1482 74.2429 64.1477 73.4697" stroke="#FFC23C" stroke-width="2" stroke-linecap="round" stroke-linejoin="round"/>
<path d="M62.2597 77.6914C62.8879 78.1307 64.7286 78.6623 65.4227 79.6331L62.2597 77.6914Z" fill="#FFF174"/>
<path d="M62.2597 77.6914C62.8879 78.1307 64.7286 78.6623 65.4227 79.6331" stroke="#FFC23C" stroke-width="2" stroke-linecap="round" stroke-linejoin="round"/>
<path d="M23.966 66.3139C23.3465 71.8448 18.747 76.4575 20.6492 81.6193C22.8106 87.4797 30.8235 88.6482 35.2078 88.8942C41.5294 89.2501 59.497 87.2161 68.6609 70.0876C76.9506 54.5889 74.3631 40.7859 69.2452 32.773C64.1492 24.7864 54.8184 19.4181 42.2806 21.7244C32.0668 23.6003 25.8813 31.9163 24.9632 41.6118C23.6936 55.037 25.2795 54.5405 23.9616 66.3227L23.966 66.3139Z" fill="#90EBA5"/>
<path d="M23.966 66.3139C23.3465 71.8448 18.747 76.4575 20.6492 81.6193C22.8106 87.4797 30.8235 88.6482 35.2078 88.8942C41.5294 89.2501 59.497 87.2161 68.6609 70.0876C76.9506 54.5889 74.3631 40.7859 69.2452 32.773C64.1492 24.7864 54.8184 19.4181 42.2806 21.7244C32.0668 23.6003 25.8813 31.9163 24.9632 41.6118C23.6936 55.037 25.2795 54.5405 23.9616 66.3227L23.966 66.3139Z" fill="white" fill-opacity="0.08"/>
<path d="M23.966 66.3139C23.3465 71.8448 18.747 76.4575 20.6492 81.6193C22.8106 87.4797 30.8235 88.6482 35.2078 88.8942C41.5294 89.2501 59.497 87.2161 68.6609 70.0876C76.9506 54.5889 74.3631 40.7859 69.2452 32.773C64.1492 24.7864 54.8184 19.4181 42.2806 21.7244C32.0668 23.6003 25.8813 31.9163 24.9632 41.6118C23.6936 55.037 25.2795 54.5405 23.9616 66.3227L23.966 66.3139Z" stroke="#5FC96E" stroke-width="2" stroke-linecap="round" stroke-linejoin="round"/>
<path d="M23.966 66.3139C23.3465 71.8448 18.747 76.4575 20.6492 81.6193C22.8106 87.4797 30.8235 88.6482 35.2078 88.8942C41.5294 89.2501 59.497 87.2161 68.6609 70.0876C76.9506 54.5889 74.3631 40.7859 69.2452 32.773C64.1492 24.7864 54.8184 19.4181 42.2806 21.7244C32.0668 23.6003 25.8813 31.9163 24.9632 41.6118C23.6936 55.037 25.2795 54.5405 23.9616 66.3227L23.966 66.3139Z" stroke="white" stroke-opacity="0.1" stroke-width="2" stroke-linecap="round" stroke-linejoin="round"/>
<path d="M63.0868 46.4879C63.3943 47.1644 63.9303 47.8365 62.9243 48.6493C62.5245 48.97 54.8015 55.0455 53.7032 55.643C52.6094 56.2361 51.1377 54.6282 52.4205 53.4421C53.7032 52.2516 60.6399 47.1073 61.2505 46.6021C62.0017 45.9739 62.7617 45.7894 63.0868 46.4923V46.4879Z" fill="#FFB2DF"/>
<path d="M63.3807 46.4618C63.8068 47.0725 63.7981 47.8237 62.7921 48.632C62.3923 48.9527 54.6693 55.0283 53.571 55.6257C52.4772 56.2188 51.0055 54.6109 52.2883 53.4248C53.571 52.2343 60.5077 47.09 61.1183 46.5848C61.8695 45.9566 62.937 45.8292 63.3807 46.4618Z" stroke="#FF91C6" stroke-width="1.7" stroke-linecap="round" stroke-linejoin="round"/>
<path d="M59.5936 47.9727C60.1778 48.0429 61.0081 49.0182 61.0081 49.7255" stroke="#FF91C6" stroke-width="1.7" stroke-linecap="round" stroke-linejoin="round"/>
<path d="M60.332 54.9316C59.1284 54.6548 51.4317 52.7614 50.6014 57.5542C49.8898 61.6749 55.9478 63.5288 58.6759 63.4365" fill="#90EBA5"/>
<path d="M60.332 54.9316C59.1284 54.6548 51.4317 52.7614 50.6014 57.5542C49.8898 61.6749 55.9478 63.5288 58.6759 63.4365" fill="white" fill-opacity="0.08"/>
<path d="M60.332 54.9316C59.1284 54.6548 51.4317 52.7614 50.6014 57.5542C49.8898 61.6749 55.9478 63.5288 58.6759 63.4365" stroke="#5FC96E" stroke-width="2" stroke-linecap="round" stroke-linejoin="round"/>
<path d="M60.332 54.9316C59.1284 54.6548 51.4317 52.7614 50.6014 57.5542C49.8898 61.6749 55.9478 63.5288 58.6759 63.4365" stroke="white" stroke-opacity="0.1" stroke-width="2" stroke-linecap="round" stroke-linejoin="round"/>
<path d="M38.0452 42.8505C38.8008 44.3661 41.6255 44.6824 42.5129 42.6265C42.9302 44.2431 45.8121 44.9636 47.0993 43.0833" stroke="#565656" stroke-width="1.7" stroke-linecap="round" stroke-linejoin="round"/>
<path d="M36.007 33.3089C38.779 35.7602 42.1529 35.1847 44.3538 33.6032C45.9617 32.4478 46.3658 29.2145 44.0331 29.1355C42.6845 29.0915 41.863 30.2864 41.9684 31.5253C42.0343 32.2985 42.7504 33.366 43.7432 33.9634C45.5575 35.0573 49.1291 35.4439 51.6595 34.082" stroke="#565656" stroke-width="1.7" stroke-linecap="round" stroke-linejoin="round"/>
<path d="M47.896 39.0638C47.9092 39.736 47.3996 40.2456 46.7582 40.2543C46.1168 40.2631 45.594 39.7843 45.5809 39.1034C45.5721 38.4576 46.0553 37.9216 46.7187 37.9128C47.3864 37.8997 47.8828 38.418 47.896 39.0638Z" fill="#565656"/>
<path d="M40.067 38.6332C40.0801 39.3053 39.5706 39.8149 38.9292 39.8237C38.2702 39.8369 37.765 39.3536 37.7518 38.6727C37.743 38.0269 38.2263 37.491 38.8896 37.4822C39.5574 37.469 40.0538 37.9874 40.067 38.6332Z" fill="#565656"/>
<path d="M22.6442 46.4617C22.6442 46.4617 21.9062 49.2074 22.4377 49.6203C27.1471 53.2665 47.7549 56.5745 54.6696 51.461C55.557 50.8064 55.2187 49.3128 54.898 47.929C54.7618 47.3315 46.0065 44.9417 38.1165 49.7389C34.8569 45.7105 28.6583 44.9549 27.0065 45.1526C26.1498 45.2536 22.776 45.4733 22.6442 46.4617Z" fill="white" stroke="#64BFE2" stroke-width="2" stroke-linecap="round" stroke-linejoin="round"/>
<path d="M22.6129 48.7062C22.3493 48.7633 21.9012 48.7765 21.8881 49.0621C21.7387 52.168 22.9907 65.9797 23.2236 66.2785C23.4827 66.6123 24.9105 66.0412 29.0795 66.933C31.8735 67.5305 36.7014 69.459 37.5361 69.4327C38.3708 69.4063 41.7579 68.3124 45.571 68.1411C49.3842 67.9698 52.947 68.4398 53.3467 68.1631C53.6015 67.9874 54.4889 53.9735 54.7042 51.0697C52.6658 50.7929 46.99 49.3344 37.4263 52.269C32.5017 48.9391 27.722 47.1467 22.6173 48.7062H22.6129Z" fill="#A7E1FF"/>
<path d="M22.0728 49.8091C22.0728 51.0084 22.6746 66.1073 22.9338 66.4236C23.193 66.7399 24.6647 66.1908 28.9391 67.043C31.799 67.6141 36.75 69.4636 37.6022 69.4372C38.4545 69.4109 41.9338 68.3521 45.8436 68.1764C49.7534 68.0007 53.4084 68.4488 53.817 68.1808C54.0762 68.0095 55.0119 54.5096 55.2403 51.7113C53.1492 51.4477 47.3328 50.0551 37.5231 52.8974C32.4799 49.6948 27.3093 48.2935 22.0728 49.8091Z" stroke="#64BFE2" stroke-width="2" stroke-linecap="round" stroke-linejoin="round"/>
<path d="M37.7342 52.8887C37.8001 55.1994 37.5848 67.7108 37.5321 69.4373" stroke="#64BFE2" stroke-width="2" stroke-linecap="round" stroke-linejoin="round"/>
<path d="M35.3977 55.0547C35.3977 55.0547 34.7871 56.7284 37.3131 57.1062C40.441 57.5719 40.2345 55.4896 40.2345 55.4896" stroke="#64BFE2" stroke-width="2" stroke-linecap="round" stroke-linejoin="round"/>
<path d="M35.1015 59.6494C35.1015 59.6494 34.5568 61.3407 37.096 61.6439C40.237 62.0217 39.9559 59.9437 39.9559 59.9437" stroke="#64BFE2" stroke-width="2" stroke-linecap="round" stroke-linejoin="round"/>
<path d="M34.9536 63.9331C34.9536 63.9331 34.4001 65.6244 37.0447 65.9188C40.3175 66.2834 40.0056 64.2099 40.0056 64.2099" stroke="#64BFE2" stroke-width="2" stroke-linecap="round" stroke-linejoin="round"/>
<path d="M26.4274 67.7149C26.4274 67.7149 28.3077 64.7452 31.128 66.3355C34.1109 68.0181 33.4475 72.9866 30.4515 73.9311" fill="#90EBA5"/>
<path d="M26.4274 67.7149C26.4274 67.7149 28.3077 64.7452 31.128 66.3355C34.1109 68.0181 33.4475 72.9866 30.4515 73.9311" fill="white" fill-opacity="0.08"/>
<path d="M26.4274 67.7149C26.4274 67.7149 28.3077 64.7452 31.128 66.3355C34.1109 68.0181 33.4475 72.9866 30.4515 73.9311" stroke="#5FC96E" stroke-width="2" stroke-linecap="round" stroke-linejoin="round"/>
<path d="M26.4274 67.7149C26.4274 67.7149 28.3077 64.7452 31.128 66.3355C34.1109 68.0181 33.4475 72.9866 30.4515 73.9311" stroke="white" stroke-opacity="0.1" stroke-width="2" stroke-linecap="round" stroke-linejoin="round"/>
<path d="M42.9002 74.5065C42.4873 74.3001 39.6142 69.9773 42.8431 67.7368C45.3428 66.0016 48.2861 68.5276 48.7606 69.5204" fill="#90EBA5"/>
<path d="M42.9002 74.5065C42.4873 74.3001 39.6142 69.9773 42.8431 67.7368C45.3428 66.0016 48.2861 68.5276 48.7606 69.5204" fill="white" fill-opacity="0.08"/>
<path d="M42.9002 74.5065C42.4873 74.3001 39.6142 69.9773 42.8431 67.7368C45.3428 66.0016 48.2861 68.5276 48.7606 69.5204" stroke="#5FC96E" stroke-width="2" stroke-linecap="round" stroke-linejoin="round"/>
<path d="M42.9002 74.5065C42.4873 74.3001 39.6142 69.9773 42.8431 67.7368C45.3428 66.0016 48.2861 68.5276 48.7606 69.5204" stroke="white" stroke-opacity="0.1" stroke-width="2" stroke-linecap="round" stroke-linejoin="round"/>
<path d="M19.578 52.8224C20.6323 51.9174 23.1056 51.3419 24.7838 52.9937C26.5102 54.6982 25.6712 57.7162 23.8568 58.6036C22.3676 59.3329 19.8943 59.3197 18.7741 57.4307C17.667 55.5636 18.5412 53.7185 19.578 52.8268V52.8224Z" fill="#90EBA5"/>
<path d="M19.578 52.8224C20.6323 51.9174 23.1056 51.3419 24.7838 52.9937C26.5102 54.6982 25.6712 57.7162 23.8568 58.6036C22.3676 59.3329 19.8943 59.3197 18.7741 57.4307C17.667 55.5636 18.5412 53.7185 19.578 52.8268V52.8224Z" fill="white" fill-opacity="0.08"/>
<path d="M19.578 52.8224C20.6323 51.9174 23.1056 51.3419 24.7838 52.9937C26.5102 54.6982 25.6712 57.7162 23.8568 58.6036C22.3676 59.3329 19.8943 59.3197 18.7741 57.4307C17.667 55.5636 18.5412 53.7185 19.578 52.8268V52.8224Z" stroke="#5FC96E" stroke-width="2" stroke-linecap="round" stroke-linejoin="round"/>
<path d="M19.578 52.8224C20.6323 51.9174 23.1056 51.3419 24.7838 52.9937C26.5102 54.6982 25.6712 57.7162 23.8568 58.6036C22.3676 59.3329 19.8943 59.3197 18.7741 57.4307C17.667 55.5636 18.5412 53.7185 19.578 52.8268V52.8224Z" stroke="white" stroke-opacity="0.1" stroke-width="2" stroke-linecap="round" stroke-linejoin="round"/>
</svg>
