<svg width="108" height="22" viewBox="0 0 108 22" fill="none" xmlns="http://www.w3.org/2000/svg">
<g clip-path="url(#clip0_2044_2715)">
<path d="M9.01942 2.60718C4.31268 2.60718 0.5 6.13815 0.5 10.4939C0.5 13.7113 1.8454 15.2491 3.68941 16.6494V20.421C3.68941 20.6014 3.89144 20.7002 4.03328 20.5971L7.24848 18.2087C7.81587 18.3204 8.40475 18.3763 9.00653 18.3763C13.7047 18.3763 17.5174 14.8496 17.526 10.5025H17.5345C17.5345 6.13815 13.7219 2.60718 9.01942 2.60718Z" fill="black"/>
<path d="M29.8796 13.2432C29.828 14.4975 29.0414 15.3394 27.9152 15.3394H27.898C26.9739 15.3394 25.895 14.7338 25.895 13.0284V8.27751H30.3782V6.7225H25.895V3.78003H24.0639V6.7311H22.4434V8.2861H24.0639V13.0198C24.0639 15.3781 25.5296 16.903 27.8035 16.903H27.8207C30.03 16.903 31.5989 15.4039 31.6333 13.2604V13.0886H29.8839V13.2475L29.8796 13.2432Z" fill="black"/>
<path d="M40.1055 7.6762C39.3791 6.68392 38.2357 6.14697 36.8301 6.14697H36.7957C34.6336 6.14697 32.4543 7.61606 32.4543 10.9022V12.1393C32.4543 15.4254 34.6336 16.8945 36.7957 16.8945H36.8301C38.2056 16.8945 39.3705 16.3103 40.1055 15.2708V16.6411H41.9366V6.40041H40.1055V7.6762ZM40.1055 11.1943V11.8515C40.1055 14.2141 38.5753 15.2923 37.1568 15.2923H37.1396C35.403 15.2923 34.2812 13.9864 34.2812 11.9632V11.0869C34.2812 9.06368 35.403 7.75782 37.1396 7.75782H37.1568C39.1813 7.75782 40.1055 9.54049 40.1055 11.1986V11.1943Z" fill="black"/>
<path d="M46.3467 2.55566H44.5156V16.6409H46.3467V2.55566Z" fill="black"/>
<path d="M57.557 6.40021H55.2014L50.7526 10.829V2.55566H48.9258V16.6409H50.7526V11.9029L55.2874 16.6409H57.759L52.5536 11.2714L57.557 6.40021Z" fill="black"/>
<path d="M65.7755 7.75342H65.7927C67.3401 7.75342 68.5265 8.79725 68.6124 10.2363L68.621 10.3952H70.3748L70.3662 10.2191C70.2716 7.85652 68.3459 6.14258 65.7884 6.14258H65.7712C64.5032 6.14258 63.3383 6.58932 62.4915 7.39689C61.5588 8.28608 61.0645 9.54898 61.0645 11.0481V11.9932C61.0645 13.4923 61.5588 14.7552 62.4915 15.6444C63.3383 16.452 64.5032 16.8987 65.7712 16.8987H65.7884C68.3459 16.8987 70.2716 15.1762 70.3662 12.805L70.3748 12.6289H68.621L68.6124 12.7878C68.5265 14.2355 67.3401 15.2879 65.7927 15.2879H65.7755C64.3914 15.2879 62.8999 14.3085 62.8999 12.1607V10.8849C62.8999 8.73711 64.3914 7.75772 65.7755 7.75772V7.75342Z" fill="black"/>
<path d="M74.1014 2.55566H72.2703V16.6409H74.1014V2.55566Z" fill="black"/>
<path d="M83.962 7.37981C83.1195 6.58512 81.9547 6.14697 80.6823 6.14697H80.6651C79.3971 6.14697 78.2365 6.58512 77.3941 7.37981C76.4656 8.2561 75.9756 9.51471 75.9756 11.0096V12.0276C75.9756 13.5268 76.4656 14.7811 77.3941 15.6574C78.2322 16.4521 79.3971 16.8902 80.6651 16.8902H80.6823C81.9504 16.8902 83.1152 16.4521 83.962 15.6574C84.8948 14.7768 85.3891 13.5225 85.3891 12.0233V11.0053C85.3891 9.50612 84.8948 8.25181 83.962 7.37121V7.37981ZM83.5408 10.885V12.1608C83.5408 14.3086 82.0578 15.288 80.6823 15.288H80.6651C79.2897 15.288 77.8067 14.3086 77.8067 12.1608V10.885C77.8067 8.73721 79.2897 7.75782 80.6651 7.75782H80.6823C82.0578 7.75782 83.5408 8.73721 83.5408 10.885Z" fill="black"/>
<path d="M94.3168 12.0491C94.3168 14.4374 92.8984 15.288 91.5702 15.288H91.553C90.0142 15.288 89.0943 14.2184 89.0943 12.4314V6.40039H87.2632V12.6161C87.2632 15.2192 88.7934 16.8988 91.1661 16.8988H91.1833C92.4857 16.8988 93.599 16.379 94.3126 15.4512V16.6411H96.1437V6.40039H94.3126V12.0491H94.3168Z" fill="black"/>
<path d="M105.669 2.5V7.61604C104.943 6.62376 103.799 6.08681 102.394 6.08681H102.359C100.197 6.08681 98.0178 7.5559 98.0178 10.842V12.0792C98.0178 15.3653 100.197 16.8344 102.359 16.8344H102.394C103.769 16.8344 104.934 16.2502 105.669 15.2106V16.5809H107.5V2.5H105.669ZM105.669 11.1341V11.7914C105.669 14.1539 104.139 15.2321 102.72 15.2321H102.703C100.967 15.2321 99.8446 13.9263 99.8446 11.903V11.0267C99.8446 9.00352 100.967 7.69766 102.703 7.69766H102.72C104.745 7.69766 105.669 9.48033 105.669 11.1384V11.1341Z" fill="black"/>
</g>
<defs>
<clipPath id="clip0_2044_2715">
<rect width="107" height="18.1403" fill="white" transform="translate(0.5 2.5)"/>
</clipPath>
</defs>
</svg>
