<svg width="93" height="22" viewBox="0 0 93 22" fill="none" xmlns="http://www.w3.org/2000/svg">
<path d="M8.79545 2.75C4.07377 2.75 0.248535 6.29491 0.248535 10.672C0.248535 13.9016 1.59759 15.4434 3.44596 16.8508V20.6381C3.44596 20.8162 3.65037 20.9184 3.79345 20.8133L7.02008 18.4159C7.58948 18.5269 8.17933 18.5853 8.78377 18.5853C13.4996 18.5853 17.3219 15.0462 17.3278 10.6779L17.3395 10.672C17.3395 6.29491 13.5142 2.75 8.79545 2.75Z" fill="black"/>
<path d="M30.0005 9.90699H34.2871V8.44697H25.6847V7.51841H34.0506V6.10803H25.6847V5.22618H34.1294V3.78369H24.0203V9.90699H28.304V10.9786H22.2654V12.4211H35.8844V10.9786H30.0005V9.90699Z" fill="black"/>
<path d="M23.7983 14.7132H32.465V17.9719H34.1294V13.2561H23.7983V14.7132Z" fill="black"/>
<path d="M48.4873 4.05216L48.4932 3.87988H37.9519V5.30778H46.7821C46.7675 5.5735 46.7441 5.85382 46.712 6.13998C44.8227 6.3035 42.294 6.31811 40.0631 6.31811H37.7124V7.71388H40.0455C42.291 7.71388 44.6212 7.69052 46.5193 7.527C46.4375 8.04384 46.347 8.51105 46.2535 8.92861H36.3984V10.3565H50.0174V8.92861H47.8917C48.2129 7.40436 48.4319 5.59978 48.4844 4.058L48.4873 4.05216Z" fill="black"/>
<path d="M39.8207 15.1894H48.2654V11.3438H38.1562V12.7687H46.601V13.7937H38.1562V17.7357H48.5837V16.2932H39.8207V15.1894Z" fill="black"/>
<path d="M62.2933 3.46826H60.6289V17.8932H62.2933V10.4763H64.3811V8.93747H62.2933V3.46826Z" fill="black"/>
<path d="M53.9187 13.7291H52.996V10.444H58.2608V4.52515H51.3315V5.98516H56.5964V9.00155H51.3315V15.2037H53.9187C55.6911 15.2037 58.252 15.1686 60.0361 14.8533L60.1763 14.8299V13.3874L59.9836 13.4166C58.0943 13.6999 55.6181 13.732 53.9187 13.732V13.7291Z" fill="black"/>
<path d="M64.676 13.0081H70.6533V17.8933H72.3177V13.0081H78.295V11.5305H64.676V13.0081Z" fill="black"/>
<path d="M70.5481 10.4441C70.8431 10.4528 71.1643 10.4557 71.4855 10.4557C71.8067 10.4557 72.1308 10.4528 72.4228 10.4441C75.1063 10.3681 76.8408 9.03661 76.8408 7.05099C76.8408 5.06538 75.1063 3.73384 72.4228 3.65792C71.8359 3.64332 71.1351 3.64332 70.5481 3.65792C67.8646 3.73384 66.1301 5.06538 66.1301 7.05099C66.1301 9.03661 67.8646 10.3681 70.5481 10.4441ZM67.7945 7.05099C67.7945 5.68734 69.2224 5.1559 70.5569 5.11502C70.8489 5.10626 71.1672 5.10334 71.4855 5.10334C71.8037 5.10334 72.122 5.10626 72.414 5.11502C73.7485 5.1559 75.1764 5.68442 75.1764 7.05099C75.1764 8.41757 73.7485 8.94609 72.414 8.98697C71.8329 9.00157 71.138 9.00157 70.5569 8.98697C69.2224 8.94609 67.7945 8.41757 67.7945 7.05099Z" fill="black"/>
<path d="M90.9618 10.3946H82.263V5.9065H90.7253V4.43188H80.5986V11.8692H90.9618V10.3946Z" fill="black"/>
<path d="M92.4308 14.8535H78.8118V16.3281H92.4308V14.8535Z" fill="black"/>
</svg>
