<svg fill="none" height="26" viewBox="0 0 26 26" width="26" xmlns="http://www.w3.org/2000/svg"><path d="m13.2164 12.3773c2.9517.0235 5.9515.7017 8.5586 2.4971 2.0545 1.4153 2.0277 3.9119 1.7695 6.0937-.1043.8724-.9212 1.4967-1.8037 1.3389l-4.0508-.7226c-.7436-.1324-1.2848-.7836-1.2754-1.5401l.0215-1.6816c-1.0427-.2942-2.2344-.3929-3.3867-.3994-1.15.0067-2.3378.1058-3.37893.3994l.01856 1.6826c.00829.7085-.46439 1.3241-1.13575 1.5078l-.13672.0313-4.05078.7216c-.88248.1584-1.7022-.4648-1.80566-1.3398-.25853-2.1814-.28425-4.6765 1.77051-6.0918 2.60643-1.7953 5.60691-2.4742 8.55757-2.4971zm3.331-7.72166c.8052.02789 1.4611.63539 1.5645 1.41894l.0136.15918.1065 3.0918c.019.55193-.4129 1.01514-.9648 1.03414-.5517.0188-1.015-.41315-1.0342-.9648l-.0469-1.33692c-.8779.87219-1.3231 1.31453-2.3594 2.34472-.6363.6323-1.6633.6399-2.3076.0127-.482-.46921-1.2487-1.21489-1.81543-1.75976-.5604-.53878-.65415-.61195-1.52929-1.46094-.39605-.3844-.40547-1.01769-.02149-1.41406.3845-.39634 1.01765-.40585 1.41407-.02148.90114.8742.89494.85175 1.52244 1.45507.4806.46203 1.1021 1.06517 1.5742 1.52442.8871-.88161 1.3233-1.31395 2.1563-2.1416l-1.4336-.04981c-.5517-.01924-.9837-.48153-.9649-1.0332.0191-.55182.4825-.98365 1.0342-.96485z" fill="#949494"/></svg>