<svg fill="none" height="16" viewBox="0 0 20 16" width="20" xmlns="http://www.w3.org/2000/svg"><rect fill="#219450" height="15" rx="7.5" width="20"/><path d="m7.06253 3.06749c.08038-.06342.17287-.10976.2718-.13617.09892-.02641.2022-.03233.3035-.01741.10129.01492.19848.05038.28558.10419.08711.05382.16231.12486.22099.20876l1.14563 1.64344c.10202.14603.14888.32354.13223.50091-.01666.17736-.09575.34304-.22317.46753l-.58594.57187c.25688.46032.63281.90375 1.0275 1.30313.39845.39375.84095.76875 1.30035 1.02562l.5728-.58593c.1162-.11873.2684-.19564.4329-.2187.1646-.02307.3321.009.4765.0912l.059.03562 1.6425 1.14656c.0841.05868.1552.13393.2091.22112.0539.08718.0894.18447.1044.28588.0149.10142.0089.20481-.0176.30379-.0265.0991-.0729.1916-.1365.272-.6609.8391-1.5113 1.7063-2.7056 1.4869-1.515-.2794-2.78066-1.0781-3.80441-2.08594l-.00375-.00375-.00281-.00187c-.02931-.03099-.05932-.06131-.09-.09094l-.01407-.01312-.00281-.00282c-1.00781-1.02468-1.80656-2.29031-2.08594-3.80625-.22031-1.19343.64875-2.04375 1.48782-2.70562z" fill="#fff"/></svg>