<svg fill="none" height="26" viewBox="0 0 26 26" width="26" xmlns="http://www.w3.org/2000/svg"><path d="m22.3976 18.009c-.0002.1557-.0457.308-.1312.4382-.0854.1302-.207.2326-.3498.2947s-.3006.0812-.4541.0549c-.1535-.0262-.2959-.0968-.4099-.2028l-3.409-3.185v1.94c0 .7092-.2817 1.3895-.7832 1.8911-.5014.5016-1.1816.7836-1.8908.7839h-8.69404c-.70911-.0003-1.38909-.2821-1.89051-.7835-.50141-.5014-.78322-1.1814-.78349-1.8905v-8.69404c0-.70928.28169-1.38953.78314-1.89116.50144-.50163 1.18158-.78358 1.89086-.78384h8.69404c.7094 0 1.3898.28183 1.8915.78349.5016.50166.7835 1.18205.7835 1.89151v2.08404l3.399-3.27104c.113-.10854.2555-.18148.4097-.20975.1541-.02827.3132-.01063.4574.05072.1443.06136.2673.16373.3538.2944.0866.13067.1328.28389.1331.44063zm-8.71-6.936c.1402-.1519.2163-.3522.2121-.5589-.0041-.2067-.0881-.4038-.2344-.54988-.1462-.14612-.3434-.22995-.5501-.23392-.2067-.00396-.4069.07225-.5586.21266l-1.935 1.93404-1.93404-1.93404c-.15187-.14028-.35215-.21631-.55884-.21216-.2067.00414-.40377.08815-.54989.2344-.14613.1463-.22996.3434-.23392.5501-.00397.2067.07225.4069.21265.5587l1.933 1.934-1.931 1.932c-.14041.1517-.21662.3519-.21265.5586.00396.2067.08779.4039.23392.5501.14612.1463.34319.2303.54988.2344.2067.0042.40698-.0719.55885-.2121l1.93304-1.932 1.934 1.933c.0727.0803.1611.145.2596.1901s.2052.0698.3135.0725c.1083.0026.2161-.0168.3167-.057.1007-.0402.1921-.1005.2687-.1771s.1369-.1681.1771-.2687c.0403-.1006.0596-.2084.057-.3167-.0027-.1083-.0274-.215-.0725-.3135-.0451-.0986-.1098-.1869-.1901-.2596l-1.933-1.934z" fill="#949494"/></svg>