<svg fill="none" height="26" viewBox="0 0 26 26" width="26" xmlns="http://www.w3.org/2000/svg"><path d="m14.9683 5.97998c1.4771 0 2.6748 1.19764 2.6748 2.67481v8.69331c0 1.4772-1.1977 2.6748-2.6748 2.6748h-8.6934c-1.47716 0-2.6748-1.1976-2.6748-2.6748v-8.69331c0-1.47717 1.19764-2.67481 2.6748-2.67481zm6.0752 1.48633c.5081-.48855 1.3541-.12874 1.3544.57617v9.96482c0 .6997-.8354 1.0626-1.3466.585l-3.4073-3.1846v-4.6699zm-6.8838 2.99709h-3.3272c-.4416.0002-.7997.3591-.7998.8008.0002.4415.3583.7995.7998.7998h1.4414l-2.1133 2.1123-2.75874-2.7588c-.31233-.3121-.8185-.312-1.13086 0-.31243.3124-.31239.8194 0 1.1318l3.32421 3.3242c.15001.15.35333.2344.56539.2344.2121 0 .4155-.0845.5655-.2344l2.6777-2.6777v1.4404c.0002.4417.3582.7997.7998.7998.4417 0 .7997-.3581.7998-.7998v-3.3076c.02-.2275-.0534-.4616-.2275-.6357-.1691-.1691-.395-.2435-.6162-.2295z" fill="#949494"/></svg>