<svg fill="none" height="26" viewBox="0 0 26 26" width="26" xmlns="http://www.w3.org/2000/svg"><path d="m7.55983 4.37997c.16404-.12922.35272-.22361.5545-.2774.20177-.05378.4124-.06583.619-.03541.20659.03042.4048.10268.58251.21235.1777.10966.33117.25444.45099.42546l2.33797 3.355c.43.615.351 1.453-.187 1.97703l-1.196 1.167c.526.94 1.294 1.845 2.099 2.66.813.803 1.716 1.568 2.654 2.093l1.169-1.196c.2373-.2425.5482-.3995.8842-.4465.336-.0471.6781.0185.9728.1865l.119.074 3.353 2.339c.731.508.868 1.522.326 2.21-1.35 1.713-3.085 3.485-5.523 3.036-3.092-.57-5.677-2.201-7.76597-4.258l-.012-.013c-.096-.098-.1-.102-.185-.186l-.028-.027-.006-.005c-2.057-2.09-3.688-4.675-4.258-7.76703-.449-2.438 1.323-4.171 3.037-5.523zm13.40297.145c.1886-.18216.4412-.28295.7034-.28068.2622.00228.513.10745.6985.29286.1854.18541.2905.43622.2928.69842.0023.26219-.0985.5148-.2807.7034l-1.837 1.838 1.837 1.838c.1822.1886.283.44123.2807.70343s-.1074.513-.2928.6984c-.1855.1854-.4363.2906-.6985.2928-.2622.0023-.5148-.0985-.7034-.2806l-1.837-1.83703-1.836 1.83703c-.1875.1876-.4418.2931-.7071.2932s-.5197-.1052-.7074-.2927c-.1876-.1875-.2931-.4419-.2932-.7072-.0001-.2652.1052-.51969.2927-.70733l1.836-1.837-1.837-1.838c-.1876-.18751-.2931-.44188-.2932-.70715s.1052-.51971.2927-.70735.4419-.29311.7072-.2932c.2652-.0001.5197.10519.7073.2927l1.838 1.838 1.838-1.838z" fill="#949494"/></svg>