<svg fill="none" height="26" viewBox="0 0 26 26" width="26" xmlns="http://www.w3.org/2000/svg"><path d="m7.01905 4.23997c.16406-.12938.35281-.2239.55469-.27778s.41263-.06598.61935-.03555c.20671.03043.40504.10274.58283.2125s.3313.25466.45113.42583l2.33795 3.354c.43.616.352 1.453-.186 1.978l-1.197 1.16703c.526.94 1.294 1.845 2.099 2.66.813.803 1.716 1.567 2.654 2.093l1.17-1.196c.2372-.2426.5481-.3998.8841-.4471.3359-.0472.6781.0182.9729.1861l.118.074 3.353 2.34c.732.508.87 1.522.327 2.21-1.35 1.713-3.085 3.485-5.523 3.035-3.093-.57-5.677-2.2-7.76695-4.258l-.007-.007-.006-.005c-.06009-.0629-.12144-.1246-.184-.185l-.028-.027-.006-.006c-2.057-2.09-3.688-4.674-4.258-7.76703-.45-2.438 1.323-4.172 3.038-5.524z" fill="#219450"/></svg>