<svg fill="none" height="16" viewBox="0 0 20 16" width="20" xmlns="http://www.w3.org/2000/svg"><rect fill="#219450" height="15" rx="7.5" width="20"/><path d="m5.59961 5.33325c0-.73623.59702-1.33325 1.33325-1.33325h4.33354c.7362 0 1.3332.59702 1.3332 1.33325v4.3335c0 .73625-.5961 1.33325-1.3332 1.33325h-4.33354c-.3536 0-.69272-.1405-.94275-.3905s-.3905-.5891-.3905-.94275zm8.69469-.59256c.0564-.05426.1274-.09075.2044-.10492.0769-.01417.1564-.00539.2284.02524.072.03062.1334.08175.1765.14701.0432.06527.0662.14178.0662.22003v4.96711c.0001.07774-.0226.15384-.0652.21884s-.1033.1162-.1746.1472-.1501.0405-.2267.0273-.1477-.0485-.2046-.1015l-1.6991-1.58761v-2.32739l1.6956-1.63131z" fill="#fff"/></svg>