<svg fill="none" height="26" viewBox="0 0 26 26" width="26" xmlns="http://www.w3.org/2000/svg"><path d="m15.368 6.001c.7095 0 1.3899.28183 1.8915.78349.5017.50166.7835 1.18206.7835 1.89151v2.082l3.399-3.27c.113-.10848.2554-.1814.4095-.2097.154-.02831.313-.01075.4572.05048s.2672.16345.3539.29397c.0866.13052.133.2836.1334.44025v9.965c-.0003.1556-.046.3078-.1315.4379-.0855.13-.2071.2323-.3499.2943-.1427.062-.3005.081-.4539.0546-.1534-.0263-.2958-.0968-.4097-.2028l-3.409-3.183v1.94c0 .7093-.2817 1.3895-.7831 1.8912-.5015.5016-1.1816.7835-1.8909.7838h-8.694c-.70928-.0003-1.38942-.2822-1.89086-.7838-.50145-.5017-.78314-1.1819-.78314-1.8912v-8.693c-.00013-.35129.06893-.69916.20324-1.02375.13431-.3246.33124-.61956.57954-.86805.24831-.24849.54312-.44564.86762-.5802.32449-.13455.67231-.20387 1.0236-.204z" fill="#191919"/></svg>