<svg width="24" height="24" viewBox="0 0 24 24" fill="none" xmlns="http://www.w3.org/2000/svg">
<rect width="24" height="24" rx="12" fill="black" fill-opacity="0.07"/>
<path fill-rule="evenodd" clip-rule="evenodd" d="M16.3338 13.6558C16.3338 13.7568 16.2519 13.8387 16.1509 13.8387H15.9003C15.776 13.8387 15.6787 13.8387 15.6053 13.8387C15.5043 13.8387 15.4225 13.7568 15.4225 13.6558V11.8269C15.4225 11.3657 15.1739 11.1142 14.7594 11.1142C14.3037 11.1142 14.014 11.4074 14.014 11.9522V13.6136C14.014 13.7146 13.9321 13.7965 13.8311 13.7965H13.3267C13.2257 13.7965 13.1438 13.7146 13.1438 13.6136V9.07551C13.1438 8.97451 13.2257 8.89264 13.3267 8.89264H13.8311C13.9321 8.89264 14.014 8.97451 14.014 9.07551V10.6931C14.221 10.3577 14.5524 10.234 15.0496 10.234C15.4225 10.234 15.7123 10.3597 15.9609 10.6112C16.2095 10.8623 16.3338 11.1977 16.3338 11.6589V13.6558ZM10.103 13.0003C10.717 13.0003 11.2244 12.6764 11.4275 12.1287C11.4564 12.0509 11.5278 11.9944 11.6108 11.9944H12.1972C12.3134 11.9944 12.4005 12.1016 12.3679 12.2132C12.0622 13.2611 11.2277 13.9222 10.103 13.9222C8.69448 13.9222 7.61729 12.8745 7.61729 11.4074C7.61729 9.94033 8.73563 8.89264 10.103 8.89264C11.2278 8.89264 12.0989 9.59099 12.4092 10.6435C12.442 10.755 12.355 10.8623 12.2387 10.8623H11.6524C11.5694 10.8623 11.4979 10.8058 11.4693 10.7279C11.2663 10.1749 10.7588 9.81459 10.1442 9.81459C9.1917 9.81459 8.57017 10.4855 8.57017 11.4074C8.57017 12.3298 9.23286 13.0003 10.103 13.0003ZM12.2227 5.57129C8.79964 5.57129 5.99854 8.16922 5.99854 11.3967C5.99854 13.7582 6.97115 14.8994 8.33265 15.9225V17.6858C8.32887 18.5213 8.74883 18.5213 9.16878 18.3124L10.8486 17.0642L10.9779 17.1034C11.3672 17.1824 11.7952 17.2217 12.1841 17.2217C15.6071 17.2217 18.4078 14.6242 18.4078 11.3967C18.4078 8.16922 15.6848 5.57129 12.2227 5.57129Z" fill="black" fill-opacity="0.74"/>
</svg>
