<svg fill="none" height="30" viewBox="0 0 30 30" width="30" xmlns="http://www.w3.org/2000/svg"><path d="m17.0811 7.11609c.3168-.00825.6248.10672.8584.32226.2412.22273.3823.5331.3916.86133l.0009.00879v1.53906h2.709v.00098h.7881v1.20019h-.7881v10.3262c-.0001.8341-.6767 1.5105-1.5107 1.5107h-9.0479c-.83394-.0003-1.50962-.6767-1.50974-1.5107v-10.3262h-.80274v-1.20019h.80274v-.00098h2.72754v-1.54394c.007-.32369.1432-.6315.3779-.85449.2304-.21873.5373-.33675.8545-.33203v-.00196h4.1485zm-6.9092 14.25881c.0001.1712.1393.3102.3105.3105h9.0479c.1713-.0001.3104-.1392.3105-.3105v-10.3262h-9.6689zm3.8896-2.2764h-1.2002v-5.4639h1.2002zm3.0869 0h-1.2002v-5.4639h1.2002zm-.0527-10.78319h-4.1807c-.0038-.00005-.0079.00132-.0107.0039-.0027.0027-.0048.00692-.0049.01075v1.51757h4.2324v-1.51367l-.0058-.01367c-.0038-.00347-.0095-.00613-.0147-.00586z" fill="#000" fill-opacity=".74"/></svg>