<svg width="24" height="24" viewBox="0 0 24 24" fill="none" xmlns="http://www.w3.org/2000/svg">
<rect width="24" height="24" rx="12" fill="black" fill-opacity="0.07"/>
<path fill-rule="evenodd" clip-rule="evenodd" d="M17.5876 10.6695C17.4988 10.3954 17.266 10.1995 16.9815 10.1582L13.9974 9.71023L12.6735 7.02865C12.5463 6.77033 12.2884 6.60974 12.0002 6.60974H11.9999C11.7121 6.60974 11.4538 6.76997 11.3262 7.02865L9.97826 9.72819L7.01897 10.1582C6.73371 10.1995 6.50126 10.3954 6.41252 10.6698C6.32306 10.944 6.39636 11.2389 6.60258 11.4397L8.75316 13.5562L8.24802 16.5029C8.19916 16.7871 8.31377 17.0688 8.54658 17.238C8.77902 17.4072 9.08225 17.4298 9.33769 17.2951L12.015 15.9037L14.662 17.2951C14.7731 17.3537 14.8931 17.3828 15.0123 17.3828C15.1679 17.3828 15.3217 17.3339 15.4539 17.238C15.6867 17.0688 15.8009 16.7871 15.7524 16.5033L15.2566 13.5267L17.3979 11.4397C17.6041 11.2386 17.6767 10.9436 17.5876 10.6695" fill="black" fill-opacity="0.74"/>
</svg>
