<svg fill="none" height="30" viewBox="0 0 30 30" width="30" xmlns="http://www.w3.org/2000/svg"><g fill="#000"><rect fill-opacity=".07" height="30" rx="15" width="30"/><path d="m21.627 23.0215h-12.73638v-1.2002h12.73638zm-3.0391-14.96092c.6744-.0033 1.3231.26132 1.8017.73633l.17.18652c.374.45234.582 1.02307.582 1.61527-.0001.6749-.2705 1.3212-.749 1.7968l.001.001-7.8174 7.877c-.1126.1133-.2661.1766-.4258.1767h-2.75099c-.33129 0-.59948-.2683-.59961-.5996v-2.8193c0-.1595.06281-.3132.17579-.4258l7.82231-7.79395c.4735-.47755 1.1173-.74752 1.79-.75097zm-8.58888 9.21972v1.9707h1.90138l6.3984-6.4482-1.8994-1.9004zm8.59478-8.0205c-.3557.0019-.6964.14538-.9463.39843l-.003.00391-.3965.39356 1.8956 1.8955.3974-.3994.0039-.0039c.2534-.2507.3964-.5929.3965-.9492 0-.3118-.1097-.61243-.3066-.85062l-.0899-.09864c-.2524-.25061-.5954-.39135-.9511-.38964z" fill-opacity=".74"/></g></svg>