<svg width="18" height="18" viewBox="0 0 18 18" fill="none" xmlns="http://www.w3.org/2000/svg">
<path d="M9 18C13.9706 18 18 13.9706 18 9C18 4.02944 13.9706 0 9 0C4.02944 0 0 4.02944 0 9C0 13.9706 4.02944 18 9 18Z" fill="black" fill-opacity="0.07"/>
<path d="M9 0.5C13.6944 0.5 17.5 4.30558 17.5 9C17.5 13.6944 13.6944 17.5 9 17.5C4.30558 17.5 0.5 13.6944 0.5 9C0.5 4.30558 4.30558 0.5 9 0.5Z" stroke="black" stroke-opacity="0.15"/>
<path d="M9.7002 13H8.2998V8H9.7002V13ZM9 5C9.26522 5 9.51949 5.10543 9.70703 5.29297C9.89457 5.48051 10 5.73478 10 6C10 6.26522 9.89457 6.51949 9.70703 6.70703C9.51949 6.89457 9.26522 7 9 7C8.73478 7 8.48051 6.89457 8.29297 6.70703C8.10543 6.51949 8 6.26522 8 6C8 5.73478 8.10543 5.48051 8.29297 5.29297C8.48051 5.10543 8.73478 5 9 5Z" fill="black" fill-opacity="0.74"/>
</svg>
