<svg width="48" height="48" viewBox="0 0 48 48" fill="none" xmlns="http://www.w3.org/2000/svg">
<path d="M24.0093 14.7245C27.8274 14.7292 31.0047 17.6325 31.0093 21.3153V21.3231C31.0093 21.3522 31.0068 21.3813 31.0063 21.41C33.7449 22.2348 35.7972 24.5623 35.8003 27.4012V27.41C35.7954 30.913 32.6878 33.6361 28.978 33.7245H19.0366V33.7216C15.3205 33.6685 12.1999 30.9446 12.1997 27.4384H13.4253C13.4255 30.1571 15.9148 32.4851 19.147 32.4852H28.9487C32.139 32.4093 34.5699 30.1008 34.5737 27.4081V27.4022L34.5688 27.1854C34.4587 24.9575 32.6972 23.0429 30.2319 22.4843L29.7026 22.3651L29.7563 21.8192C29.773 21.6481 29.7827 21.4849 29.7827 21.3231V21.3163L29.7749 21.0448C29.6195 18.2558 27.1406 15.9669 24.0083 15.9628C21.6998 15.9657 19.7462 17.2097 18.8159 18.9803C18.3104 18.9668 17.8275 19.0234 17.4126 19.1034C18.3851 16.5341 20.9966 14.7281 24.0073 14.7245H24.0093ZM19.147 21.1522C21.2618 21.1523 23.1731 22.009 24.4546 23.3798L24.0083 23.8036L23.562 24.2294C22.5204 23.1155 20.9366 22.3906 19.147 22.3905C15.9148 22.3906 13.4256 24.7186 13.4253 27.4374H12.1997C12.2 23.8965 15.3826 21.1523 19.147 21.1522Z" fill="black"/>
</svg>
